AtkinsonHyperlegibleMono-BoldItalic.sfdir
StartChar: quotedbl
Encoding: 34 34 284
Width: 632
GlyphClass: 1
Flags: W
LayerCount: 2
Fore
SplineSet
228 668 m 1,0,-1
 367 668 l 1,1,-1
 300 423 l 1,2,-1
 191 423 l 1,3,-1
 228 668 l 1,0,-1
443 668 m 1,4,-1
 582 668 l 1,5,-1
 515 423 l 1,6,-1
 407 423 l 1,7,-1
 443 668 l 1,4,-1
EndSplineSet
EndChar
StartChar: numbersign
Encoding: 35 35 261
Width: 632
GlyphClass: 1
Flags: W
LayerCount: 2
Fore
SplineSet
90 156 m 1,0,-1
 5 156 l 1,1,-1
 45 275 l 1,2,-1
 127 275 l 1,3,-1
 165 393 l 1,4,-1
 82 393 l 1,5,-1
 121 512 l 1,6,-1
 205 512 l 1,7,-1
 256 668 l 1,8,-1
 386 668 l 1,9,-1
 334 512 l 1,10,-1
 449 512 l 1,11,-1
 501 668 l 1,12,-1
 630 668 l 1,13,-1
 579 512 l 1,14,-1
 663 512 l 1,15,-1
 623 393 l 1,16,-1
 541 393 l 1,17,-1
 503 275 l 1,18,-1
 586 275 l 1,19,-1
 547 156 l 1,20,-1
 464 156 l 1,21,-1
 412 0 l 1,22,-1
 282 0 l 1,23,-1
 334 156 l 1,24,-1
 219 156 l 1,25,-1
 167 0 l 1,26,-1
 38 0 l 1,27,-1
 90 156 l 1,0,-1
373 275 m 1,28,-1
 412 393 l 1,29,-1
 295 393 l 1,30,-1
 257 275 l 1,31,-1
 373 275 l 1,28,-1
EndSplineSet
EndChar
StartChar: dollar
Encoding: 36 36 304
Width: 632
GlyphClass: 1
Flags: W
LayerCount: 2
Fore
SplineSet
105.5 48 m 128,-1,1
 54 89 54 89 36 159 c 1,2,-1
 167 204 l 1,3,4
 172 170 172 170 195.5 146 c 128,-1,5
 219 122 219 122 253 111 c 1,6,-1
 291 293 l 1,7,-1
 260 304 l 2,8,9
 109 355 109 355 109 471 c 0,10,11
 109 529 109 529 144 576.5 c 128,-1,12
 179 624 179 624 239.5 651.5 c 128,-1,13
 300 679 300 679 373 680 c 1,14,-1
 390 758 l 1,15,-1
 455 758 l 1,16,-1
 438 675 l 1,17,18
 502 663 502 663 550 627.5 c 128,-1,19
 598 592 598 592 617 535 c 1,20,-1
 488 490 l 1,21,22
 473 539 473 539 413 558 c 1,23,-1
 378 394 l 1,24,-1
 398 388 l 2,25,26
 490 358 490 358 533 317 c 128,-1,27
 576 276 576 276 576 211 c 0,28,29
 576 148 576 148 538.5 97 c 128,-1,30
 501 46 501 46 436 17 c 128,-1,31
 371 -12 371 -12 292 -12 c 1,32,-1
 275 -90 l 1,33,-1
 210 -90 l 1,34,-1
 228 -6 l 1,35,0
 157 7 157 7 105.5 48 c 128,-1,1
400 127.5 m 128,-1,37
 432 153 432 153 432 193 c 0,38,39
 432 220 432 220 413.5 237.5 c 128,-1,40
 395 255 395 255 361 268 c 2,41,-1
 352 272 l 1,42,-1
 316 101 l 1,43,36
 368 102 368 102 400 127.5 c 128,-1,37
278 542 m 128,-1,45
 252 521 252 521 252 486 c 0,46,47
 252 463 252 463 266.5 446 c 128,-1,48
 281 429 281 429 307 419 c 2,49,-1
 317 415 l 1,50,-1
 349 566 l 1,51,44
 304 563 304 563 278 542 c 128,-1,45
EndSplineSet
EndChar
StartChar: percent
Encoding: 37 37 332
Width: 632
GlyphClass: 1
Flags: W
LayerCount: 2
Fore
SplineSet
140 410.5 m 128,-1,1
 107 430 107 430 88 463 c 128,-1,2
 69 496 69 496 69 535 c 0,3,4
 69 575 69 575 88 608 c 128,-1,5
 107 641 107 641 140 660 c 128,-1,6
 173 679 173 679 212 679 c 256,7,8
 251 679 251 679 284 660 c 128,-1,9
 317 641 317 641 336.5 608 c 128,-1,10
 356 575 356 575 356 535 c 0,11,12
 356 496 356 496 336.5 463 c 128,-1,13
 317 430 317 430 284 410.5 c 128,-1,14
 251 391 251 391 212 391 c 256,15,0
 173 391 173 391 140 410.5 c 128,-1,1
256 490.5 m 128,-1,17
 274 509 274 509 274 535 c 256,18,19
 274 561 274 561 255.5 580 c 128,-1,20
 237 599 237 599 212 599 c 256,21,22
 187 599 187 599 169 580 c 128,-1,23
 151 561 151 561 151 535 c 256,24,25
 151 509 151 509 169 490.5 c 128,-1,26
 187 472 187 472 212 472 c 0,27,16
 238 472 238 472 256 490.5 c 128,-1,17
524 668 m 1,28,-1
 638 668 l 1,29,-1
 144 0 l 1,30,-1
 30 0 l 1,31,-1
 524 668 l 1,28,-1
384 6.5 m 128,-1,33
 351 26 351 26 332 59 c 128,-1,34
 313 92 313 92 313 131 c 0,35,36
 313 171 313 171 332 204 c 128,-1,37
 351 237 351 237 384 256 c 128,-1,38
 417 275 417 275 456 275 c 256,39,40
 495 275 495 275 528 256 c 128,-1,41
 561 237 561 237 580.5 204 c 128,-1,42
 600 171 600 171 600 131 c 0,43,44
 600 92 600 92 580.5 59 c 128,-1,45
 561 26 561 26 528 6.5 c 128,-1,46
 495 -13 495 -13 456 -13 c 256,47,32
 417 -13 417 -13 384 6.5 c 128,-1,33
500 86.5 m 128,-1,49
 518 105 518 105 518 131 c 256,50,51
 518 157 518 157 499.5 176 c 128,-1,52
 481 195 481 195 456 195 c 256,53,54
 431 195 431 195 413 176 c 128,-1,55
 395 157 395 157 395 131 c 256,56,57
 395 105 395 105 413 86.5 c 128,-1,58
 431 68 431 68 456 68 c 0,59,48
 482 68 482 68 500 86.5 c 128,-1,49
EndSplineSet
EndChar
StartChar: parenleft
Encoding: 40 40 268
Width: 632
GlyphClass: 1
Flags: W
LayerCount: 2
Fore
SplineSet
168 7.5 m 128,-1,1
 139 96 139 96 139 185 c 0,2,3
 139 335 139 335 217.5 469 c 128,-1,4
 296 603 296 603 440 708 c 1,5,-1
 616 708 l 1,6,7
 466 608 466 608 371 473.5 c 128,-1,8
 276 339 276 339 276 190 c 0,9,10
 276 103 276 103 308.5 13.5 c 128,-1,11
 341 -76 341 -76 403 -162 c 1,12,-1
 253 -162 l 1,13,0
 197 -81 197 -81 168 7.5 c 128,-1,1
EndSplineSet
EndChar
StartChar: asterisk
Encoding: 42 42 260
Width: 632
GlyphClass: 1
Flags: W
LayerCount: 2
Fore
SplineSet
198 375 m 1,0,-1
 299 474 l 1,1,-1
 189 526 l 1,2,-1
 230 599 l 1,3,-1
 340 547 l 1,4,-1
 365 669 l 1,5,-1
 446 669 l 1,6,-1
 419 540 l 1,7,-1
 542 566 l 1,8,-1
 552 487 l 1,9,-1
 427 460 l 1,10,-1
 476 359 l 1,11,-1
 404 320 l 1,12,-1
 356 419 l 1,13,-1
 254 320 l 1,14,-1
 198 375 l 1,0,-1
EndSplineSet
EndChar
StartChar: plus
Encoding: 43 43 311
Width: 632
GlyphClass: 1
Flags: W
LayerCount: 2
Fore
SplineSet
244 189 m 1,0,-1
 47 189 l 1,1,-1
 73 307 l 1,2,-1
 269 307 l 1,3,-1
 310 496 l 1,4,-1
 428 496 l 1,5,-1
 387 307 l 1,6,-1
 585 307 l 1,7,-1
 559 189 l 1,8,-1
 362 189 l 1,9,-1
 322 0 l 1,10,-1
 204 0 l 1,11,-1
 244 189 l 1,0,-1
EndSplineSet
EndChar
StartChar: zero
Encoding: 48 48 229
Width: 632
GlyphClass: 1
Flags: W
LayerCount: 2
Fore
SplineSet
108.5 58 m 128,-1,1
 45 128 45 128 45 249 c 0,2,3
 45 345 45 345 79.5 445 c 128,-1,4
 114 545 114 545 188 613 c 128,-1,5
 262 681 262 681 375 681 c 0,6,7
 498 681 498 681 561 611 c 128,-1,8
 624 541 624 541 624 421 c 0,9,10
 624 326 624 326 589.5 225.5 c 128,-1,11
 555 125 555 125 480.5 56.5 c 128,-1,12
 406 -12 406 -12 294 -12 c 0,13,0
 172 -12 172 -12 108.5 58 c 128,-1,1
385 130 m 1,15,-1
 233 460 l 1,16,17
 208 411 208 411 195.5 351.5 c 128,-1,18
 183 292 183 292 183 243 c 0,19,20
 183 175 183 175 210 133.5 c 128,-1,21
 237 92 237 92 297 92 c 0,22,14
 347 92 347 92 385 130 c 1,15,-1
473 318.5 m 128,-1,24
 485 377 485 377 485 423 c 0,25,26
 485 491 485 491 458 534 c 128,-1,27
 431 577 431 577 373 577 c 0,28,29
 325 577 325 577 286 541 c 1,30,-1
 438 212 l 1,31,23
 461 260 461 260 473 318.5 c 128,-1,24
EndSplineSet
Substitution2: "'zero' Slashed Zero in Latin lookup 10 subtable" zero.zero
AlternateSubs2: "'aalt' Access All Alternates in Latin lookup 0 subtable" zero.zero
EndChar
StartChar: two
Encoding: 50 50 231
Width: 632
GlyphClass: 5
Flags: W
LayerCount: 2
Fore
SplineSet
261.5 255.5 m 128,-1,1
 352 318 352 318 409 379.5 c 128,-1,2
 466 441 466 441 466 497 c 0,3,4
 466 533 466 533 441.5 554 c 128,-1,5
 417 575 417 575 377 575 c 0,6,7
 294 575 294 575 256 488 c 1,8,-1
 132 537 l 1,9,10
 168 610 168 610 234.5 645 c 128,-1,11
 301 680 301 680 381 680 c 0,12,13
 480 680 480 680 544 634 c 128,-1,14
 608 588 608 588 608 505 c 256,15,16
 608 422 608 422 551 350 c 128,-1,17
 494 278 494 278 415 225 c 128,-1,18
 336 172 336 172 229 115 c 1,19,-1
 538 115 l 1,20,-1
 514 0 l 1,21,-1
 13 0 l 1,22,-1
 37 115 l 1,23,0
 171 193 171 193 261.5 255.5 c 128,-1,1
EndSplineSet
Substitution2: "'sups' Superscript in Latin lookup 6 subtable" uni00B2
AlternateSubs2: "'aalt' Access All Alternates in Latin lookup 0 subtable" uni00B2
EndChar
StartChar: four
Encoding: 52 52 233
Width: 632
GlyphClass: 5
Flags: W
LayerCount: 2
Fore
SplineSet
341 145 m 1,0,-1
 14 145 l 1,1,-1
 37 250 l 1,2,-1
 447 668 l 1,3,-1
 593 668 l 1,4,-1
 508 269 l 1,5,-1
 601 269 l 1,6,-1
 575 145 l 1,7,-1
 482 145 l 1,8,-1
 451 0 l 1,9,-1
 310 0 l 1,10,-1
 341 145 l 1,0,-1
367 269 m 1,11,-1
 411 476 l 1,12,-1
 407 476 l 1,13,-1
 199 269 l 1,14,-1
 367 269 l 1,11,-1
EndSplineSet
EndChar
StartChar: five
Encoding: 53 53 234
Width: 632
GlyphClass: 1
Flags: W
LayerCount: 2
Fore
SplineSet
135 30 m 128,-1,1
 72 72 72 72 50 145 c 1,2,-1
 173 186 l 1,3,4
 179 141 179 141 209.5 117 c 128,-1,5
 240 93 240 93 288 93 c 0,6,7
 333 93 333 93 364.5 115 c 128,-1,8
 396 137 396 137 411.5 172 c 128,-1,9
 427 207 427 207 427 245 c 0,10,11
 427 295 427 295 398.5 321.5 c 128,-1,12
 370 348 370 348 324 348 c 0,13,14
 288 348 288 348 256.5 330 c 128,-1,15
 225 312 225 312 201 281 c 1,16,-1
 86 327 l 1,17,-1
 200 668 l 1,18,-1
 634 668 l 1,19,-1
 610 553 l 1,20,-1
 292 553 l 1,21,-1
 245 414 l 1,22,23
 301 453 301 453 372 453 c 0,24,25
 429 453 429 453 474.5 428.5 c 128,-1,26
 520 404 520 404 546 359 c 128,-1,27
 572 314 572 314 572 255 c 0,28,29
 572 176 572 176 535 115.5 c 128,-1,30
 498 55 498 55 433.5 21.5 c 128,-1,31
 369 -12 369 -12 288 -12 c 0,32,0
 198 -12 198 -12 135 30 c 128,-1,1
EndSplineSet
EndChar
StartChar: six
Encoding: 54 54 235
Width: 632
GlyphClass: 1
Flags: W
LayerCount: 2
Fore
SplineSet
126.5 55 m 128,-1,1
 66 122 66 122 66 233 c 0,2,3
 66 328 66 328 102.5 432 c 128,-1,4
 139 536 139 536 216 608 c 128,-1,5
 293 680 293 680 407 680 c 0,6,7
 559 680 559 680 605 567 c 1,8,-1
 479 524 l 1,9,10
 471 548 471 548 448 562 c 128,-1,11
 425 576 425 576 394 576 c 0,12,13
 334 576 334 576 294 526 c 128,-1,14
 254 476 254 476 237 402 c 1,15,16
 263 426 263 426 301 438 c 128,-1,17
 339 450 339 450 376 450 c 0,18,19
 436 450 436 450 482 424 c 128,-1,20
 528 398 528 398 553 352.5 c 128,-1,21
 578 307 578 307 578 252 c 0,22,23
 578 182 578 182 543 121.5 c 128,-1,24
 508 61 508 61 444.5 24.5 c 128,-1,25
 381 -12 381 -12 299 -12 c 0,26,0
 187 -12 187 -12 126.5 55 c 128,-1,1
375 114.5 m 128,-1,28
 404 137 404 137 418.5 172 c 128,-1,29
 433 207 433 207 433 243 c 0,30,31
 433 287 433 287 407.5 315.5 c 128,-1,32
 382 344 382 344 332 344 c 0,33,34
 292 344 292 344 262.5 323 c 128,-1,35
 233 302 233 302 217.5 268 c 128,-1,36
 202 234 202 234 202 197 c 0,37,38
 202 150 202 150 229.5 121 c 128,-1,39
 257 92 257 92 305 92 c 0,40,27
 346 92 346 92 375 114.5 c 128,-1,28
EndSplineSet
EndChar
StartChar: eight
Encoding: 56 56 237
Width: 632
GlyphClass: 1
Flags: W
LayerCount: 2
Fore
SplineSet
169 10.5 m 128,-1,1
 109 33 109 33 72.5 77.5 c 128,-1,2
 36 122 36 122 36 185 c 0,3,4
 36 261 36 261 79 314 c 128,-1,5
 122 367 122 367 195 390 c 1,6,7
 174 423 174 423 174 467 c 0,8,9
 174 523 174 523 202.5 572.5 c 128,-1,10
 231 622 231 622 279.5 651.5 c 128,-1,11
 328 681 328 681 386 681 c 0,12,13
 438 681 438 681 477.5 659 c 128,-1,14
 517 637 517 637 538 599 c 128,-1,15
 559 561 559 561 559 514 c 0,16,17
 559 470 559 470 541 430 c 128,-1,18
 523 390 523 390 491 361 c 1,19,20
 531 336 531 336 553.5 299.5 c 128,-1,21
 576 263 576 263 576 217 c 0,22,23
 576 148 576 148 538.5 96 c 128,-1,24
 501 44 501 44 438 16 c 128,-1,25
 375 -12 375 -12 300 -12 c 0,26,0
 229 -12 229 -12 169 10.5 c 128,-1,1
395.5 132 m 128,-1,28
 432 159 432 159 432 206 c 0,29,30
 432 249 432 249 396 274 c 128,-1,31
 360 299 360 299 308 299 c 0,32,33
 253 299 253 299 216.5 272 c 128,-1,34
 180 245 180 245 180 198 c 0,35,36
 180 155 180 155 216 130 c 128,-1,37
 252 105 252 105 304 105 c 0,38,27
 359 105 359 105 395.5 132 c 128,-1,28
416 438 m 128,-1,40
 441 464 441 464 441 498 c 0,41,42
 441 526 441 526 423 545.5 c 128,-1,43
 405 565 405 565 376 565 c 0,44,45
 340 565 340 565 315 539 c 128,-1,46
 290 513 290 513 290 479 c 0,47,48
 290 451 290 451 309.5 431.5 c 128,-1,49
 329 412 329 412 357 412 c 0,50,39
 391 412 391 412 416 438 c 128,-1,40
EndSplineSet
EndChar
StartChar: nine
Encoding: 57 57 238
Width: 632
GlyphClass: 1
Flags: W
LayerCount: 2
Fore
SplineSet
208.5 227 m 128,-1,1
 161 255 161 255 133.5 303 c 128,-1,2
 106 351 106 351 106 409 c 0,3,4
 106 481 106 481 141.5 543.5 c 128,-1,5
 177 606 177 606 238.5 643 c 128,-1,6
 300 680 300 680 372 680 c 0,7,8
 437 680 437 680 487.5 651 c 128,-1,9
 538 622 538 622 566 572.5 c 128,-1,10
 594 523 594 523 594 464 c 0,11,12
 594 411 594 411 571.5 360.5 c 128,-1,13
 549 310 549 310 506 254 c 2,14,-1
 307 0 l 1,15,-1
 153 0 l 1,16,-1
 312 199 l 1,17,0
 256 199 256 199 208.5 227 c 128,-1,1
403.5 336 m 128,-1,19
 433 354 433 354 450.5 384 c 128,-1,20
 468 414 468 414 468 449 c 0,21,22
 468 494 468 494 439 525 c 128,-1,23
 410 556 410 556 362 556 c 0,24,25
 325 556 325 556 295 537.5 c 128,-1,26
 265 519 265 519 248 488 c 128,-1,27
 231 457 231 457 231 422 c 0,28,29
 231 376 231 376 261.5 347 c 128,-1,30
 292 318 292 318 339 318 c 0,31,18
 374 318 374 318 403.5 336 c 128,-1,19
EndSplineSet
EndChar
StartChar: less
Encoding: 60 60 318
Width: 632
GlyphClass: 1
Flags: W
LayerCount: 2
Fore
SplineSet
61 203 m 1,0,-1
 81 295 l 1,1,-1
 615 507 l 1,2,-1
 586 367 l 1,3,-1
 226 241 l 1,4,-1
 531 114 l 1,5,-1
 505 -9 l 1,6,-1
 61 203 l 1,0,-1
EndSplineSet
EndChar
StartChar: question
Encoding: 63 63 256
Width: 632
GlyphClass: 1
Flags: W
LayerCount: 2
Fore
SplineSet
258 352 m 128,-1,1
 293 390 293 390 363 415 c 0,2,3
 419 435 419 435 447 454 c 128,-1,4
 475 473 475 473 475 502 c 256,5,6
 475 531 475 531 444.5 549 c 128,-1,7
 414 567 414 567 369 567 c 0,8,9
 325 567 325 567 289.5 545.5 c 128,-1,10
 254 524 254 524 238 487 c 1,11,-1
 111 535 l 1,12,13
 143 605 143 605 212.5 642.5 c 128,-1,14
 282 680 282 680 377 680 c 0,15,16
 437 680 437 680 493.5 661 c 128,-1,17
 550 642 550 642 586 604 c 128,-1,18
 622 566 622 566 622 512 c 0,19,20
 622 444 622 444 579 400.5 c 128,-1,21
 536 357 536 357 453 327 c 0,22,23
 396 306 396 306 374.5 287.5 c 128,-1,24
 353 269 353 269 347 243 c 2,25,-1
 344 224 l 1,26,-1
 202 224 l 1,27,-1
 207 246 l 2,28,0
 223 314 223 314 258 352 c 128,-1,1
180.5 15 m 128,-1,30
 154 42 154 42 154 80 c 256,31,32
 154 118 154 118 180.5 144 c 128,-1,33
 207 170 207 170 245 170 c 256,34,35
 283 170 283 170 309.5 144 c 128,-1,36
 336 118 336 118 336 80 c 256,37,38
 336 42 336 42 309.5 15 c 128,-1,39
 283 -12 283 -12 245 -12 c 256,40,29
 207 -12 207 -12 180.5 15 c 128,-1,30
EndSplineSet
EndChar
StartChar: A
Encoding: 65 65 2
Width: 632
GlyphClass: 2
Flags: W
AnchorPoint: "Anchor-2" 549 10 basechar 0
AnchorPoint: "Anchor-1" 405 668 basechar 0
AnchorPoint: "Anchor-0" 263 0 basechar 0
LayerCount: 2
Fore
SplineSet
328 668 m 1,0,-1
 482 668 l 1,1,-1
 547 0 l 1,2,-1
 417 0 l 1,3,-1
 407 126 l 1,4,-1
 176 126 l 1,5,-1
 113 0 l 1,6,-1
 -21 0 l 1,7,-1
 328 668 l 1,0,-1
400 243 m 1,8,-1
 377 520 l 1,9,-1
 373 520 l 1,10,-1
 233 243 l 1,11,-1
 400 243 l 1,8,-1
EndSplineSet
Substitution2: "Single Substitution lookup 14 subtable" ordfeminine
AlternateSubs2: "'aalt' Access All Alternates in Latin lookup 0 subtable" ordfeminine
EndChar
StartChar: B
Encoding: 66 66 13
Width: 632
GlyphClass: 2
Flags: W
AnchorPoint: "Anchor-1" 414 668 basechar 0
AnchorPoint: "Anchor-0" 272 0 basechar 0
LayerCount: 2
Fore
SplineSet
166 668 m 1,0,-1
 395 668 l 2,1,2
 503 668 503 668 559.5 626.5 c 128,-1,3
 616 585 616 585 616 514 c 0,4,5
 616 460 616 460 588 414 c 128,-1,6
 560 368 560 368 497 344 c 1,7,8
 534 327 534 327 556 293 c 128,-1,9
 578 259 578 259 578 214 c 0,10,11
 578 151 578 151 549.5 102.5 c 128,-1,12
 521 54 521 54 467.5 27 c 128,-1,13
 414 0 414 0 341 0 c 2,14,-1
 24 0 l 1,15,-1
 166 668 l 1,0,-1
411.5 141.5 m 128,-1,17
 442 168 442 168 442 211 c 0,18,19
 442 244 442 244 418 264.5 c 128,-1,20
 394 285 394 285 351 285 c 2,21,-1
 217 285 l 1,22,-1
 181 115 l 1,23,-1
 326 115 l 2,24,16
 381 115 381 115 411.5 141.5 c 128,-1,17
452 424 m 128,-1,26
 478 448 478 448 478 487 c 0,27,28
 478 516 478 516 456 534.5 c 128,-1,29
 434 553 434 553 393 553 c 2,30,-1
 275 553 l 1,31,-1
 243 400 l 1,32,-1
 379 400 l 2,33,25
 426 400 426 400 452 424 c 128,-1,26
EndSplineSet
EndChar
StartChar: D
Encoding: 68 68 19
Width: 632
GlyphClass: 2
Flags: W
AnchorPoint: "Anchor-1" 401 668 basechar 0
AnchorPoint: "Anchor-0" 270 0 basechar 0
LayerCount: 2
Fore
SplineSet
154 668 m 1,0,-1
 291 668 l 2,1,2
 448 668 448 668 533 600.5 c 128,-1,3
 618 533 618 533 618 393 c 0,4,5
 618 309 618 309 585 218.5 c 128,-1,6
 552 128 552 128 474 64 c 128,-1,7
 396 0 396 0 269 0 c 2,8,-1
 12 0 l 1,9,-1
 154 668 l 1,0,-1
391.5 159 m 128,-1,11
 438 200 438 200 459 262.5 c 128,-1,12
 480 325 480 325 480 393 c 0,13,14
 480 478 480 478 430.5 514.5 c 128,-1,15
 381 551 381 551 292 551 c 2,16,-1
 263 551 l 1,17,-1
 171 118 l 1,18,-1
 274 118 l 2,19,10
 345 118 345 118 391.5 159 c 128,-1,11
EndSplineSet
EndChar
StartChar: E
Encoding: 69 69 23
Width: 632
GlyphClass: 2
Flags: W
AnchorPoint: "Anchor-2" 508 10 basechar 0
AnchorPoint: "Anchor-1" 420 668 basechar 0
AnchorPoint: "Anchor-0" 265 0 basechar 0
LayerCount: 2
Fore
SplineSet
188 668 m 1,0,-1
 644 668 l 1,1,-1
 617 540 l 1,2,-1
 306 540 l 1,3,-1
 277 407 l 1,4,-1
 473 407 l 1,5,-1
 446 280 l 1,6,-1
 250 280 l 1,7,-1
 218 128 l 1,8,-1
 533 128 l 1,9,-1
 506 0 l 1,10,-1
 46 0 l 1,11,-1
 188 668 l 1,0,-1
EndSplineSet
EndChar
StartChar: G
Encoding: 71 71 33
Width: 632
GlyphClass: 2
Flags: W
AnchorPoint: "Anchor-1" 400 668 basechar 0
AnchorPoint: "Anchor-0" 274 0 basechar 0
LayerCount: 2
Fore
SplineSet
104 62 m 128,-1,1
 49 136 49 136 49 252 c 0,2,3
 49 348 49 348 86.5 447 c 128,-1,4
 124 546 124 546 200 613 c 128,-1,5
 276 680 276 680 386 680 c 0,6,7
 466 680 466 680 526.5 640 c 128,-1,8
 587 600 587 600 606 524 c 1,9,-1
 492 485 l 1,10,11
 480 525 480 525 449 544.5 c 128,-1,12
 418 564 418 564 380 564 c 0,13,14
 317 564 317 564 273 515.5 c 128,-1,15
 229 467 229 467 208 397 c 128,-1,16
 187 327 187 327 187 265 c 0,17,18
 187 194 187 194 218 149 c 128,-1,19
 249 104 249 104 312 104 c 0,20,21
 361 104 361 104 400 136 c 128,-1,22
 439 168 439 168 456 241 c 2,23,-1
 461 262 l 1,24,-1
 327 262 l 1,25,-1
 350 372 l 1,26,-1
 608 372 l 1,27,-1
 528 0 l 1,28,-1
 446 0 l 1,29,-1
 442 72 l 1,30,31
 407 29 407 29 361 8.5 c 128,-1,32
 315 -12 315 -12 266 -12 c 0,33,0
 159 -12 159 -12 104 62 c 128,-1,1
EndSplineSet
EndChar
StartChar: H
Encoding: 72 72 37
Width: 632
GlyphClass: 2
Flags: W
AnchorPoint: "Anchor-1" 406 668 basechar 0
AnchorPoint: "Anchor-0" 264 0 basechar 0
LayerCount: 2
Fore
SplineSet
143 668 m 1,0,-1
 288 668 l 1,1,-1
 233 407 l 1,2,-1
 466 407 l 1,3,-1
 522 668 l 1,4,-1
 667 668 l 1,5,-1
 525 0 l 1,6,-1
 380 0 l 1,7,-1
 439 280 l 1,8,-1
 206 280 l 1,9,-1
 146 0 l 1,10,-1
 1 0 l 1,11,-1
 143 668 l 1,0,-1
EndSplineSet
EndChar
StartChar: J
Encoding: 74 74 48
Width: 632
GlyphClass: 2
Flags: W
AnchorPoint: "Anchor-1" 570 668 basechar 0
AnchorPoint: "Anchor-0" 260 0 basechar 0
LayerCount: 2
Fore
SplineSet
95.5 35 m 128,-1,1
 27 82 27 82 17 179 c 1,2,-1
 155 227 l 1,3,4
 157 166 157 166 186 134.5 c 128,-1,5
 215 103 215 103 276 103 c 0,6,7
 326 103 326 103 358.5 134 c 128,-1,8
 391 165 391 165 405 235 c 2,9,-1
 497 668 l 1,10,-1
 642 668 l 1,11,-1
 547 220 l 2,12,13
 524 107 524 107 453.5 47.5 c 128,-1,14
 383 -12 383 -12 270 -12 c 0,15,0
 164 -12 164 -12 95.5 35 c 128,-1,1
EndSplineSet
Substitution2: "Single Substitution lookup 13 subtable" uni004A0301
AlternateSubs2: "'aalt' Access All Alternates in Latin lookup 0 subtable" uni004A0301
EndChar
StartChar: K
Encoding: 75 75 50
Width: 632
GlyphClass: 2
Flags: W
AnchorPoint: "Anchor-1" 410 668 basechar 0
AnchorPoint: "Anchor-0" 266 0 basechar 0
LayerCount: 2
Fore
SplineSet
155 668 m 1,0,-1
 288 668 l 1,1,-1
 228 384 l 1,2,-1
 524 668 l 1,3,-1
 687 668 l 1,4,-1
 385 382 l 1,5,-1
 560 0 l 1,6,-1
 407 0 l 1,7,-1
 282 283 l 1,8,-1
 188 194 l 1,9,-1
 146 0 l 1,10,-1
 13 0 l 1,11,-1
 155 668 l 1,0,-1
EndSplineSet
EndChar
StartChar: M
Encoding: 77 77 56
Width: 632
GlyphClass: 2
Flags: W
AnchorPoint: "Anchor-1" 405 668 basechar 0
AnchorPoint: "Anchor-0" 263 0 basechar 0
LayerCount: 2
Fore
SplineSet
127 668 m 1,0,-1
 307 668 l 1,1,-1
 302 182 l 1,2,-1
 306 182 l 1,3,-1
 508 668 l 1,4,-1
 683 668 l 1,5,-1
 541 0 l 1,6,-1
 431 0 l 1,7,-1
 543 525 l 1,8,-1
 539 525 l 1,9,-1
 317 0 l 1,10,-1
 207 0 l 1,11,-1
 209 525 l 1,12,-1
 205 525 l 1,13,-1
 93 0 l 1,14,-1
 -15 0 l 1,15,-1
 127 668 l 1,0,-1
EndSplineSet
EndChar
StartChar: N
Encoding: 78 78 57
Width: 632
GlyphClass: 2
Flags: W
AnchorPoint: "Anchor-1" 405 668 basechar 0
AnchorPoint: "Anchor-0" 254 0 basechar 0
LayerCount: 2
Fore
SplineSet
147 668 m 1,0,-1
 304 668 l 1,1,-1
 431 179 l 1,2,-1
 435 179 l 1,3,-1
 539 668 l 1,4,-1
 663 668 l 1,5,-1
 521 0 l 1,6,-1
 364 0 l 1,7,-1
 237 489 l 1,8,-1
 233 489 l 1,9,-1
 129 0 l 1,10,-1
 5 0 l 1,11,-1
 147 668 l 1,0,-1
EndSplineSet
EndChar
StartChar: O
Encoding: 79 79 62
Width: 632
GlyphClass: 2
Flags: W
AnchorPoint: "Anchor-3" 698 668 basechar 0
AnchorPoint: "Anchor-2" 512 10 basechar 0
AnchorPoint: "Anchor-1" 406 668 basechar 0
AnchorPoint: "Anchor-0" 264 0 basechar 0
LayerCount: 2
Fore
SplineSet
109.5 59.5 m 128,-1,1
 49 131 49 131 49 252 c 0,2,3
 49 352 49 352 85.5 451 c 128,-1,4
 122 550 122 550 196.5 615 c 128,-1,5
 271 680 271 680 378 680 c 0,6,7
 498 680 498 680 558.5 608.5 c 128,-1,8
 619 537 619 537 619 416 c 0,9,10
 619 316 619 316 582.5 217 c 128,-1,11
 546 118 546 118 471.5 53 c 128,-1,12
 397 -12 397 -12 290 -12 c 0,13,0
 170 -12 170 -12 109.5 59.5 c 128,-1,1
399 156.5 m 128,-1,15
 440 209 440 209 460 282.5 c 128,-1,16
 480 356 480 356 480 416 c 0,17,18
 480 482 480 482 454 523 c 128,-1,19
 428 564 428 564 371 564 c 0,20,21
 310 564 310 564 269 511.5 c 128,-1,22
 228 459 228 459 208 385.5 c 128,-1,23
 188 312 188 312 188 252 c 0,24,25
 188 186 188 186 214 145 c 128,-1,26
 240 104 240 104 297 104 c 0,27,14
 358 104 358 104 399 156.5 c 128,-1,15
EndSplineSet
Substitution2: "Single Substitution lookup 14 subtable" ordmasculine
AlternateSubs2: "'aalt' Access All Alternates in Latin lookup 0 subtable" ordmasculine
EndChar
StartChar: Q
Encoding: 81 81 73
Width: 632
GlyphClass: 1
Flags: W
LayerCount: 2
Fore
SplineSet
109.5 59.5 m 128,-1,1
 49 131 49 131 49 252 c 0,2,3
 49 352 49 352 85.5 451 c 128,-1,4
 122 550 122 550 196.5 615 c 128,-1,5
 271 680 271 680 378 680 c 0,6,7
 498 680 498 680 558.5 608.5 c 128,-1,8
 619 537 619 537 619 416 c 0,9,10
 619 341 619 341 597.5 263.5 c 128,-1,11
 576 186 576 186 535 125 c 1,12,-1
 588 62 l 1,13,-1
 505 -10 l 1,14,-1
 459 44 l 1,15,16
 387 -12 387 -12 290 -12 c 0,17,0
 170 -12 170 -12 109.5 59.5 c 128,-1,1
381 137 m 1,19,-1
 280 255 l 1,20,-1
 364 326 l 1,21,-1
 441 235 l 1,22,23
 460 278 460 278 470 327 c 128,-1,24
 480 376 480 376 480 416 c 0,25,26
 480 482 480 482 454 523 c 128,-1,27
 428 564 428 564 371 564 c 0,28,29
 310 564 310 564 269 511.5 c 128,-1,30
 228 459 228 459 208 385.5 c 128,-1,31
 188 312 188 312 188 252 c 0,32,33
 188 186 188 186 214 145 c 128,-1,34
 240 104 240 104 297 104 c 0,35,18
 343 104 343 104 381 137 c 1,19,-1
EndSplineSet
EndChar
StartChar: R
Encoding: 82 82 74
Width: 632
GlyphClass: 2
Flags: W
AnchorPoint: "Anchor-1" 385 668 basechar 0
AnchorPoint: "Anchor-0" 263 0 basechar 0
LayerCount: 2
Fore
SplineSet
155 668 m 1,0,-1
 386 668 l 2,1,2
 485 668 485 668 548.5 619.5 c 128,-1,3
 612 571 612 571 612 486 c 0,4,5
 612 400 612 400 561.5 339 c 128,-1,6
 511 278 511 278 416 264 c 1,7,-1
 540 0 l 1,8,-1
 391 0 l 1,9,-1
 281 255 l 1,10,-1
 200 255 l 1,11,-1
 146 0 l 1,12,-1
 13 0 l 1,13,-1
 155 668 l 1,0,-1
444.5 399 m 128,-1,15
 473 428 473 428 473 474 c 0,16,17
 473 511 473 511 445.5 532 c 128,-1,18
 418 553 418 553 371 553 c 2,19,-1
 264 553 l 1,20,-1
 225 370 l 1,21,-1
 357 370 l 2,22,14
 416 370 416 370 444.5 399 c 128,-1,15
EndSplineSet
EndChar
StartChar: S
Encoding: 83 83 77
Width: 632
GlyphClass: 2
Flags: W
AnchorPoint: "Anchor-1" 395 668 basechar 0
AnchorPoint: "Anchor-0" 293 0 basechar 0
LayerCount: 2
Fore
SplineSet
130 33.5 m 128,-1,1
 60 79 60 79 38 159 c 1,2,-1
 172 203 l 1,3,4
 181 158 181 158 221 131.5 c 128,-1,5
 261 105 261 105 313 105 c 0,6,7
 363 105 363 105 395.5 129.5 c 128,-1,8
 428 154 428 154 428 193 c 0,9,10
 428 246 428 246 326 277 c 2,11,-1
 269 296 l 2,12,13
 193 320 193 320 152 361 c 128,-1,14
 111 402 111 402 111 467 c 0,15,16
 111 530 111 530 148.5 578.5 c 128,-1,17
 186 627 186 627 247.5 653.5 c 128,-1,18
 309 680 309 680 381 680 c 0,19,20
 467 680 467 680 531 642.5 c 128,-1,21
 595 605 595 605 616 535 c 1,22,-1
 484 490 l 1,23,24
 472 523 472 523 440 543 c 128,-1,25
 408 563 408 563 365 563 c 256,26,27
 322 563 322 563 290.5 543 c 128,-1,28
 259 523 259 523 259 488 c 0,29,30
 259 441 259 441 325 418 c 2,31,-1
 392 395 l 2,32,33
 487 363 487 363 531.5 322 c 128,-1,34
 576 281 576 281 576 219 c 0,35,36
 576 154 576 154 539.5 101 c 128,-1,37
 503 48 503 48 439 18 c 128,-1,38
 375 -12 375 -12 297 -12 c 0,39,0
 200 -12 200 -12 130 33.5 c 128,-1,1
EndSplineSet
EndChar
StartChar: V
Encoding: 86 86 96
Width: 632
GlyphClass: 2
Flags: W
AnchorPoint: "Anchor-1" 405 668 basechar 0
AnchorPoint: "Anchor-0" 263 0 basechar 0
LayerCount: 2
Fore
SplineSet
124 668 m 1,0,-1
 259 668 l 1,1,-1
 290 150 l 1,2,-1
 294 150 l 1,3,-1
 546 668 l 1,4,-1
 686 668 l 1,5,-1
 340 0 l 1,6,-1
 186 0 l 1,7,-1
 124 668 l 1,0,-1
EndSplineSet
EndChar
StartChar: X
Encoding: 88 88 102
Width: 632
GlyphClass: 2
Flags: W
AnchorPoint: "Anchor-1" 406 668 basechar 0
AnchorPoint: "Anchor-0" 264 0 basechar 0
LayerCount: 2
Fore
SplineSet
259 345 m 1,0,-1
 122 668 l 1,1,-1
 268 668 l 1,2,-1
 355 461 l 1,3,-1
 359 461 l 1,4,-1
 530 668 l 1,5,-1
 688 668 l 1,6,-1
 413 342 l 1,7,-1
 559 0 l 1,8,-1
 413 0 l 1,9,-1
 317 227 l 1,10,-1
 313 227 l 1,11,-1
 126 0 l 1,12,-1
 -32 0 l 1,13,-1
 259 345 l 1,0,-1
EndSplineSet
EndChar
StartChar: d
Encoding: 100 100 129
Width: 632
GlyphClass: 2
Flags: W
AnchorPoint: "Anchor-3" 630 496 basechar 0
AnchorPoint: "Anchor-1" 437 796 basechar 0
AnchorPoint: "Anchor-0" 268 0 basechar 0
LayerCount: 2
Fore
SplineSet
88 45.5 m 128,-1,1
 40 103 40 103 40 195 c 0,2,3
 40 276 40 276 72 348.5 c 128,-1,4
 104 421 104 421 165 465.5 c 128,-1,5
 226 510 226 510 308 510 c 0,6,7
 361 510 361 510 402 486 c 128,-1,8
 443 462 443 462 459 418 c 1,9,-1
 521 708 l 1,10,-1
 662 708 l 1,11,-1
 552 192 l 2,12,13
 529 87 529 87 528 0 c 1,14,-1
 394 0 l 1,15,-1
 388 69 l 1,16,17
 353 28 353 28 309 8 c 128,-1,18
 265 -12 265 -12 219 -12 c 0,19,0
 136 -12 136 -12 88 45.5 c 128,-1,1
366.5 129 m 128,-1,21
 401 160 401 160 417.5 205.5 c 128,-1,22
 434 251 434 251 434 294 c 0,23,24
 434 345 434 345 409 373 c 128,-1,25
 384 401 384 401 335 401 c 0,26,27
 284 401 284 401 250 370 c 128,-1,28
 216 339 216 339 200.5 294.5 c 128,-1,29
 185 250 185 250 185 211 c 0,30,31
 185 160 185 160 210 129 c 128,-1,32
 235 98 235 98 282 98 c 0,33,20
 332 98 332 98 366.5 129 c 128,-1,21
EndSplineSet
EndChar
StartChar: g
Encoding: 103 103 143
Width: 632
GlyphClass: 2
Flags: W
AnchorPoint: "Anchor-1" 374 496 basechar 0
AnchorPoint: "Anchor-0" 217 -251 basechar 0
LayerCount: 2
Fore
SplineSet
121.5 -172.5 m 128,-1,1
 59 -144 59 -144 35 -83 c 1,2,-1
 150 -38 l 1,3,4
 165 -68 165 -68 196.5 -81 c 128,-1,5
 228 -94 228 -94 263 -94 c 0,6,7
 304 -94 304 -94 334 -73 c 128,-1,8
 364 -52 364 -52 374 -4 c 2,9,-1
 394 87 l 1,10,11
 320 17 320 17 227 17 c 0,12,13
 172 17 172 17 131.5 44.5 c 128,-1,14
 91 72 91 72 69.5 119 c 128,-1,15
 48 166 48 166 48 223 c 0,16,17
 48 299 48 299 79 365 c 128,-1,18
 110 431 110 431 168.5 470.5 c 128,-1,19
 227 510 227 510 305 510 c 0,20,21
 354 510 354 510 397.5 486.5 c 128,-1,22
 441 463 441 463 462 421 c 1,23,-1
 498 496 l 1,24,-1
 620 496 l 1,25,-1
 517 7 l 2,26,27
 472 -201 472 -201 261 -201 c 0,28,0
 184 -201 184 -201 121.5 -172.5 c 128,-1,1
382.5 158.5 m 128,-1,30
 420 191 420 191 434 256 c 0,31,32
 438 276 438 276 438 297 c 0,33,34
 438 346 438 346 411 373.5 c 128,-1,35
 384 401 384 401 335 401 c 256,36,37
 286 401 286 401 254 376 c 128,-1,38
 222 351 222 351 207.5 313.5 c 128,-1,39
 193 276 193 276 193 237 c 0,40,41
 193 188 193 188 219.5 157 c 128,-1,42
 246 126 246 126 296 126 c 0,43,29
 345 126 345 126 382.5 158.5 c 128,-1,30
EndSplineSet
EndChar
StartChar: k
Encoding: 107 107 161
Width: 632
GlyphClass: 2
Flags: W
AnchorPoint: "Anchor-1" 443 796 basechar 0
AnchorPoint: "Anchor-0" 275 0 basechar 0
LayerCount: 2
Fore
SplineSet
186 708 m 1,0,-1
 327 708 l 1,1,-1
 238 291 l 1,2,-1
 474 496 l 1,3,-1
 651 496 l 1,4,-1
 399 285 l 1,5,-1
 563 0 l 1,6,-1
 408 0 l 1,7,-1
 296 198 l 1,8,-1
 202 119 l 1,9,-1
 177 0 l 1,10,-1
 36 0 l 1,11,-1
 186 708 l 1,0,-1
EndSplineSet
EndChar
StartChar: m
Encoding: 109 109 167
Width: 632
GlyphClass: 2
Flags: W
AnchorPoint: "Anchor-1" 370 496 basechar 0
AnchorPoint: "Anchor-0" 266 0 basechar 0
LayerCount: 2
Fore
SplineSet
101 496 m 1,0,-1
 196 496 l 1,1,-1
 199 449 l 1,2,3
 221 476 221 476 252 493 c 128,-1,4
 283 510 283 510 317 510 c 0,5,6
 388 510 388 510 402 451 c 1,7,8
 424 477 424 477 456 493.5 c 128,-1,9
 488 510 488 510 524 510 c 0,10,11
 571 510 571 510 594 485.5 c 128,-1,12
 617 461 617 461 617 418 c 0,13,14
 617 396 617 396 613 376 c 2,15,-1
 533 0 l 1,16,-1
 417 0 l 1,17,-1
 487 334 l 2,18,19
 491 350 491 350 491 366 c 0,20,21
 491 401 491 401 460 401 c 0,22,23
 435 401 435 401 416.5 379 c 128,-1,24
 398 357 398 357 390 316 c 2,25,-1
 322 0 l 1,26,-1
 207 0 l 1,27,-1
 277 334 l 2,28,29
 281 350 281 350 281 365 c 0,30,31
 281 401 281 401 250 401 c 0,32,33
 225 401 225 401 206.5 379 c 128,-1,34
 188 357 188 357 178 315 c 2,35,-1
 112 0 l 1,36,-1
 -4 0 l 1,37,-1
 101 496 l 1,0,-1
EndSplineSet
EndChar
StartChar: n
Encoding: 110 110 168
Width: 632
GlyphClass: 2
Flags: W
AnchorPoint: "Anchor-1" 370 496 basechar 0
AnchorPoint: "Anchor-0" 263 0 basechar 0
LayerCount: 2
Fore
SplineSet
136 496 m 1,0,-1
 259 496 l 1,1,-1
 262 429 l 1,2,3
 288 461 288 461 332.5 485.5 c 128,-1,4
 377 510 377 510 428 510 c 0,5,6
 501 510 501 510 536.5 474 c 128,-1,7
 572 438 572 438 572 373 c 0,8,9
 572 342 572 342 564 302 c 2,10,-1
 500 0 l 1,11,-1
 359 0 l 1,12,-1
 419 281 l 2,13,14
 425 308 425 308 425 329 c 0,15,16
 425 401 425 401 354 401 c 0,17,18
 309 401 309 401 274 361.5 c 128,-1,19
 239 322 239 322 225 253 c 2,20,-1
 171 0 l 1,21,-1
 31 0 l 1,22,-1
 136 496 l 1,0,-1
EndSplineSet
EndChar
StartChar: p
Encoding: 112 112 182
Width: 632
GlyphClass: 2
Flags: W
AnchorPoint: "Anchor-1" 359 496 basechar 0
AnchorPoint: "Anchor-0" 254 0 basechar 0
LayerCount: 2
Fore
SplineSet
122 496 m 1,0,-1
 245 496 l 1,1,-1
 248 427 l 1,2,3
 281 468 281 468 324 489 c 128,-1,4
 367 510 367 510 414 510 c 0,5,6
 498 510 498 510 546 452.5 c 128,-1,7
 594 395 594 395 594 303 c 0,8,9
 594 222 594 222 562 149.5 c 128,-1,10
 530 77 530 77 469 32.5 c 128,-1,11
 408 -12 408 -12 326 -12 c 0,12,13
 273 -12 273 -12 231.5 12 c 128,-1,14
 190 36 190 36 174 79 c 1,15,-1
 123 -162 l 1,16,-1
 -17 -162 l 1,17,-1
 122 496 l 1,0,-1
383 129 m 128,-1,19
 417 160 417 160 433 204 c 128,-1,20
 449 248 449 248 449 287 c 0,21,22
 449 338 449 338 424 369.5 c 128,-1,23
 399 401 399 401 352 401 c 0,24,25
 301 401 301 401 266.5 369 c 128,-1,26
 232 337 232 337 215.5 291 c 128,-1,27
 199 245 199 245 199 204 c 0,28,29
 199 154 199 154 224 126 c 128,-1,30
 249 98 249 98 298 98 c 0,31,18
 349 98 349 98 383 129 c 128,-1,19
EndSplineSet
EndChar
StartChar: r
Encoding: 114 114 185
Width: 632
GlyphClass: 2
Flags: W
AnchorPoint: "Anchor-1" 380 496 basechar 0
AnchorPoint: "Anchor-0" 140 0 basechar 0
LayerCount: 2
Fore
SplineSet
175 496 m 1,0,-1
 286 496 l 1,1,-1
 290 398 l 1,2,3
 342 455 342 455 404.5 482 c 128,-1,4
 467 509 467 509 534 509 c 0,5,6
 578 509 578 509 621 499 c 1,7,-1
 592 361 l 1,8,9
 540 380 540 380 481 380 c 0,10,11
 391 380 391 380 330.5 330.5 c 128,-1,12
 270 281 270 281 251 188 c 2,13,-1
 211 0 l 1,14,-1
 70 0 l 1,15,-1
 175 496 l 1,0,-1
EndSplineSet
EndChar
StartChar: s
Encoding: 115 115 188
Width: 632
GlyphClass: 2
Flags: W
AnchorPoint: "Anchor-1" 361 496 basechar 0
AnchorPoint: "Anchor-0" 289 0 basechar 0
LayerCount: 2
Fore
SplineSet
149.5 19.5 m 128,-1,1
 80 51 80 51 55 117 c 1,2,-1
 175 159 l 1,3,4
 186 123 186 123 225 106.5 c 128,-1,5
 264 90 264 90 308 90 c 0,6,7
 344 90 344 90 370 102.5 c 128,-1,8
 396 115 396 115 396 142 c 0,9,10
 396 158 396 158 379.5 170 c 128,-1,11
 363 182 363 182 325 193 c 2,12,-1
 243 218 l 2,13,14
 113 258 113 258 113 350 c 0,15,16
 113 401 113 401 144.5 437 c 128,-1,17
 176 473 176 473 227 491.5 c 128,-1,18
 278 510 278 510 336 510 c 0,19,20
 412 510 412 510 473 482 c 128,-1,21
 534 454 534 454 557 392 c 1,22,-1
 438 351 l 1,23,24
 428 382 428 382 396 395.5 c 128,-1,25
 364 409 364 409 326 409 c 0,26,27
 294 409 294 409 271 398 c 128,-1,28
 248 387 248 387 248 364 c 0,29,30
 248 336 248 336 303 318 c 2,31,-1
 391 292 l 2,32,33
 462 269 462 269 497.5 238 c 128,-1,34
 533 207 533 207 533 159 c 0,35,36
 533 105 533 105 502 66.5 c 128,-1,37
 471 28 471 28 419.5 8 c 128,-1,38
 368 -12 368 -12 307 -12 c 0,39,0
 219 -12 219 -12 149.5 19.5 c 128,-1,1
EndSplineSet
EndChar
StartChar: v
Encoding: 118 118 207
Width: 632
GlyphClass: 2
Flags: W
AnchorPoint: "Anchor-1" 369 496 basechar 0
AnchorPoint: "Anchor-0" 263 0 basechar 0
LayerCount: 2
Fore
SplineSet
103 496 m 1,0,-1
 243 496 l 1,1,-1
 289 146 l 1,2,-1
 293 146 l 1,3,-1
 486 496 l 1,4,-1
 635 496 l 1,5,-1
 340 0 l 1,6,-1
 185 0 l 1,7,-1
 103 496 l 1,0,-1
EndSplineSet
EndChar
StartChar: w
Encoding: 119 119 208
Width: 632
GlyphClass: 2
Flags: W
AnchorPoint: "Anchor-1" 366 496 basechar 0
AnchorPoint: "Anchor-0" 264 0 basechar 0
LayerCount: 2
Fore
SplineSet
71 496 m 1,0,-1
 183 496 l 1,1,-1
 175 150 l 1,2,-1
 179 150 l 1,3,-1
 311 496 l 1,4,-1
 424 496 l 1,5,-1
 409 151 l 1,6,-1
 413 151 l 1,7,-1
 551 496 l 1,8,-1
 667 496 l 1,9,-1
 455 0 l 1,10,-1
 329 0 l 1,11,-1
 338 345 l 1,12,-1
 334 345 l 1,13,-1
 197 0 l 1,14,-1
 71 0 l 1,15,-1
 71 496 l 1,0,-1
EndSplineSet
EndChar
StartChar: braceleft
Encoding: 123 123 270
Width: 632
GlyphClass: 1
Flags: W
LayerCount: 2
Fore
SplineSet
178.5 -133 m 128,-1,1
 141 -104 141 -104 141 -48 c 0,2,3
 141 -27 141 -27 148 6 c 2,4,-1
 173 121 l 2,5,6
 177 140 177 140 177 158 c 0,7,8
 177 188 177 188 159.5 201.5 c 128,-1,9
 142 215 142 215 102 217 c 1,10,-1
 126 329 l 1,11,12
 164 330 164 330 185 339 c 128,-1,13
 206 348 206 348 217 367.5 c 128,-1,14
 228 387 228 387 237 424 c 2,15,-1
 269 572 l 2,16,17
 286 649 286 649 324.5 678.5 c 128,-1,18
 363 708 363 708 441 708 c 2,19,-1
 592 708 l 1,20,-1
 569 598 l 1,21,-1
 456 598 l 2,22,23
 427 598 427 598 416 591 c 128,-1,24
 405 584 405 584 400 559 c 2,25,-1
 364 398 l 2,26,27
 351 340 351 340 324 311.5 c 128,-1,28
 297 283 297 283 246 275 c 1,29,-1
 244 269 l 1,30,31
 280 255 280 255 297 232.5 c 128,-1,32
 314 210 314 210 314 176 c 0,33,34
 314 155 314 155 308 128 c 2,35,-1
 279 -4 l 1,36,-1
 277 -20 l 2,37,38
 277 -37 277 -37 290 -44.5 c 128,-1,39
 303 -52 303 -52 333 -52 c 2,40,-1
 431 -52 l 1,41,-1
 408 -162 l 1,42,-1
 299 -162 l 2,43,0
 216 -162 216 -162 178.5 -133 c 128,-1,1
EndSplineSet
EndChar
StartChar: bar
Encoding: 124 124 296
Width: 632
GlyphClass: 1
Flags: W
LayerCount: 2
Fore
SplineSet
373 838 m 1,0,-1
 509 838 l 1,1,-1
 297 -162 l 1,2,-1
 161 -162 l 1,3,-1
 373 838 l 1,0,-1
EndSplineSet
EndChar
StartChar: asciitilde
Encoding: 126 126 324
Width: 632
GlyphClass: 1
Flags: W
LayerCount: 2
Fore
SplineSet
133 305 m 128,-1,1
 170 347 170 347 230 347 c 0,2,3
 260 347 260 347 282 338 c 128,-1,4
 304 329 304 329 330 312 c 0,5,6
 352 298 352 298 366.5 291.5 c 128,-1,7
 381 285 381 285 398 285 c 0,8,9
 425 285 425 285 442.5 304.5 c 128,-1,10
 460 324 460 324 468 370 c 1,11,-1
 562 334 l 1,12,13
 541 254 541 254 504 212.5 c 128,-1,14
 467 171 467 171 407 171 c 0,15,16
 377 171 377 171 355 180 c 128,-1,17
 333 189 333 189 307 206 c 0,18,19
 285 220 285 220 270.5 226.5 c 128,-1,20
 256 233 256 233 239 233 c 0,21,22
 184 233 184 233 169 148 c 1,23,-1
 75 183 l 1,24,0
 96 263 96 263 133 305 c 128,-1,1
EndSplineSet
EndChar
StartChar: cent
Encoding: 162 162 302
Width: 632
GlyphClass: 1
Flags: W
LayerCount: 2
Fore
SplineSet
133 62 m 128,-1,1
 89 116 89 116 89 202 c 0,2,3
 89 282 89 282 122.5 351.5 c 128,-1,4
 156 421 156 421 218 463.5 c 128,-1,5
 280 506 280 506 363 508 c 1,6,-1
 379 586 l 1,7,-1
 448 586 l 1,8,-1
 430 502 l 1,9,10
 482 492 482 492 520 461 c 128,-1,11
 558 430 558 430 576 378 c 1,12,-1
 459 340 l 1,13,14
 444 379 444 379 407 392 c 1,15,-1
 345 98 l 1,16,17
 398 104 398 104 426 147 c 1,18,-1
 542 101 l 1,19,20
 504 47 504 47 446 18 c 128,-1,21
 388 -11 388 -11 321 -13 c 1,22,-1
 304 -90 l 1,23,-1
 235 -90 l 1,24,-1
 253 -7 l 1,25,0
 177 8 177 8 133 62 c 128,-1,1
278.5 352 m 128,-1,27
 254 321 254 321 242.5 281.5 c 128,-1,28
 231 242 231 242 231 207 c 0,29,30
 231 134 231 134 279 111 c 1,31,-1
 339 393 l 1,32,26
 303 383 303 383 278.5 352 c 128,-1,27
EndSplineSet
EndChar
StartChar: currency
Encoding: 164 164 303
Width: 632
GlyphClass: 1
Flags: W
LayerCount: 2
Fore
SplineSet
89 126 m 1,0,-1
 155 193 l 1,1,2
 113 250 113 250 113 320 c 256,3,4
 113 390 113 390 155 448 c 1,5,-1
 89 514 l 1,6,-1
 138 563 l 1,7,-1
 204 497 l 1,8,9
 265 539 265 539 332 539 c 256,10,11
 399 539 399 539 459 497 c 1,12,-1
 526 563 l 1,13,-1
 575 514 l 1,14,-1
 508 448 l 1,15,16
 551 391 551 391 551 320 c 256,17,18
 551 249 551 249 508 193 c 1,19,-1
 575 126 l 1,20,-1
 526 77 l 1,21,-1
 459 144 l 1,22,23
 401 102 401 102 332 102 c 256,24,25
 263 102 263 102 204 144 c 1,26,-1
 138 77 l 1,27,-1
 89 126 l 1,0,-1
407 244.5 m 128,-1,29
 438 276 438 276 438 320 c 256,30,31
 438 364 438 364 407 396 c 128,-1,32
 376 428 376 428 332 428 c 256,33,34
 288 428 288 428 256.5 396 c 128,-1,35
 225 364 225 364 225 320 c 256,36,37
 225 276 225 276 256.5 244.5 c 128,-1,38
 288 213 288 213 332 213 c 256,39,28
 376 213 376 213 407 244.5 c 128,-1,29
EndSplineSet
EndChar
StartChar: registered
Encoding: 174 174 293
Width: 632
GlyphClass: 1
Flags: W
LayerCount: 2
Fore
SplineSet
181.5 33.5 m 128,-1,1
 114 80 114 80 76 159 c 128,-1,2
 38 238 38 238 38 333 c 256,3,4
 38 428 38 428 76 507 c 128,-1,5
 114 586 114 586 181.5 632.5 c 128,-1,6
 249 679 249 679 334 679 c 256,7,8
 419 679 419 679 486.5 632.5 c 128,-1,9
 554 586 554 586 592 507 c 128,-1,10
 630 428 630 428 630 333 c 256,11,12
 630 238 630 238 592 159 c 128,-1,13
 554 80 554 80 486.5 33.5 c 128,-1,14
 419 -13 419 -13 334 -13 c 256,15,0
 249 -13 249 -13 181.5 33.5 c 128,-1,1
453.5 81.5 m 128,-1,17
 507 119 507 119 537.5 185 c 128,-1,18
 568 251 568 251 568 333 c 256,19,20
 568 415 568 415 537.5 481 c 128,-1,21
 507 547 507 547 453.5 584.5 c 128,-1,22
 400 622 400 622 334 622 c 256,23,24
 268 622 268 622 214.5 584.5 c 128,-1,25
 161 547 161 547 130.5 481 c 128,-1,26
 100 415 100 415 100 333 c 256,27,28
 100 251 100 251 130.5 185 c 128,-1,29
 161 119 161 119 214.5 81.5 c 128,-1,30
 268 44 268 44 334 44 c 256,31,16
 400 44 400 44 453.5 81.5 c 128,-1,17
202 529 m 1,32,-1
 331 529 l 2,33,34
 470 529 470 529 470 415 c 0,35,36
 470 333 470 333 394 310 c 1,37,-1
 487 162 l 1,38,-1
 398 162 l 1,39,-1
 314 300 l 1,40,-1
 281 300 l 1,41,-1
 281 162 l 1,42,-1
 202 162 l 1,43,-1
 202 529 l 1,32,-1
386 415 m 0,45,46
 386 439 386 439 370.5 448.5 c 128,-1,47
 355 458 355 458 326 458 c 2,48,-1
 281 458 l 1,49,-1
 281 371 l 1,50,-1
 327 371 l 2,51,44
 386 371 386 371 386 415 c 0,45,46
EndSplineSet
EndChar
StartChar: degree
Encoding: 176 176 295
Width: 632
GlyphClass: 1
Flags: W
LayerCount: 2
Fore
SplineSet
296 385.5 m 128,-1,1
 260 407 260 407 238.5 443 c 128,-1,2
 217 479 217 479 217 522 c 256,3,4
 217 565 217 565 238 601 c 128,-1,5
 259 637 259 637 295.5 658 c 128,-1,6
 332 679 332 679 374 679 c 0,7,8
 417 679 417 679 453 658 c 128,-1,9
 489 637 489 637 510 601 c 128,-1,10
 531 565 531 565 531 522 c 256,11,12
 531 479 531 479 510 443 c 128,-1,13
 489 407 489 407 453 385.5 c 128,-1,14
 417 364 417 364 374 364 c 0,15,0
 332 364 332 364 296 385.5 c 128,-1,1
426.5 469.5 m 128,-1,17
 448 491 448 491 448 522 c 256,18,19
 448 553 448 553 426.5 574.5 c 128,-1,20
 405 596 405 596 374 596 c 0,21,22
 344 596 344 596 322 574.5 c 128,-1,23
 300 553 300 553 300 522 c 256,24,25
 300 491 300 491 322 469.5 c 128,-1,26
 344 448 344 448 374 448 c 0,27,16
 405 448 405 448 426.5 469.5 c 128,-1,17
EndSplineSet
EndChar
StartChar: ordmasculine
Encoding: 186 186 224
Width: 632
GlyphClass: 1
Flags: W
LayerCount: 2
Fore
SplineSet
238.5 374.5 m 128,-1,1
 192 414 192 414 192 485 c 0,2,3
 192 539 192 539 215 586.5 c 128,-1,4
 238 634 238 634 282.5 663.5 c 128,-1,5
 327 693 327 693 389 693 c 0,6,7
 461 693 461 693 507.5 653.5 c 128,-1,8
 554 614 554 614 554 543 c 0,9,10
 554 489 554 489 531 441.5 c 128,-1,11
 508 394 508 394 463.5 364.5 c 128,-1,12
 419 335 419 335 357 335 c 0,13,0
 285 335 285 335 238.5 374.5 c 128,-1,1
410 434.5 m 128,-1,15
 431 455 431 455 440.5 483.5 c 128,-1,16
 450 512 450 512 450 538 c 0,17,18
 450 573 450 573 434 594 c 128,-1,19
 418 615 418 615 388 615 c 0,20,21
 357 615 357 615 336 594.5 c 128,-1,22
 315 574 315 574 305 545 c 128,-1,23
 295 516 295 516 295 490 c 0,24,25
 295 456 295 456 311 435 c 128,-1,26
 327 414 327 414 358 414 c 256,27,14
 389 414 389 414 410 434.5 c 128,-1,15
EndSplineSet
EndChar
StartChar: threequarters
Encoding: 190 190 243
Width: 632
GlyphClass: 3
Flags: W
LayerCount: 2
Fore
SplineSet
536 668 m 1,0,-1
 650 668 l 1,1,-1
 156 0 l 1,2,-1
 42 0 l 1,3,-1
 536 668 l 1,0,-1
455 59 m 1,4,-1
 299 59 l 1,5,-1
 315 131 l 1,6,-1
 497 309 l 1,7,-1
 590 309 l 1,8,-1
 553 133 l 1,9,-1
 599 133 l 1,10,-1
 583 59 l 1,11,-1
 537 59 l 1,12,-1
 525 0 l 1,13,-1
 442 0 l 1,14,-1
 455 59 l 1,4,-1
471 133 m 1,15,-1
 488 212 l 1,16,-1
 486 212 l 1,17,-1
 408 133 l 1,18,-1
 471 133 l 1,15,-1
102 376.5 m 128,-1,20
 66 393 66 393 53 429 c 1,21,-1
 135 455 l 1,22,23
 144 428 144 428 181 428 c 0,24,25
 198 428 198 428 209.5 436.5 c 128,-1,26
 221 445 221 445 221 459 c 0,27,28
 221 488 221 488 156 485 c 1,29,-1
 172 558 l 1,30,-1
 189 557 l 2,31,32
 216 557 216 557 229.5 566 c 128,-1,33
 243 575 243 575 243 590 c 0,34,35
 243 601 243 601 233 607 c 128,-1,36
 223 613 223 613 209 613 c 0,37,38
 194 613 194 613 181.5 607 c 128,-1,39
 169 601 169 601 162 590 c 1,40,-1
 86 621 l 1,41,42
 124 680 124 680 214 680 c 0,43,44
 264 680 264 680 298 657.5 c 128,-1,45
 332 635 332 635 332 596 c 0,46,47
 332 573 332 573 316 550.5 c 128,-1,48
 300 528 300 528 278 520 c 1,49,50
 294 512 294 512 303 497 c 128,-1,51
 312 482 312 482 312 464 c 0,52,53
 312 419 312 419 272.5 389.5 c 128,-1,54
 233 360 233 360 178 360 c 0,55,19
 138 360 138 360 102 376.5 c 128,-1,20
EndSplineSet
Ligature2: "'frac' Diagonal Fractions in Latin lookup 7 subtable" three slash four
EndChar
StartChar: Oslash
Encoding: 216 216 68
Width: 632
GlyphClass: 2
Flags: W
AnchorPoint: "Anchor-3" 698 668 basechar 0
AnchorPoint: "Anchor-2" 512 10 basechar 0
AnchorPoint: "Anchor-1" 406 668 basechar 0
AnchorPoint: "Anchor-0" 264 0 basechar 0
LayerCount: 2
Fore
SplineSet
121 49 m 1,1,-1
 66 -11 l 1,2,-1
 14 34 l 1,3,-1
 79 106 l 1,4,5
 49 166 49 166 49 252 c 0,6,7
 49 352 49 352 85.5 451 c 128,-1,8
 122 550 122 550 196.5 615 c 128,-1,9
 271 680 271 680 378 680 c 256,10,11
 485 680 485 680 548 619 c 1,12,-1
 602 678 l 1,13,-1
 655 633 l 1,14,-1
 589 562 l 1,15,16
 619 501 619 501 619 416 c 0,17,18
 619 316 619 316 582.5 217 c 128,-1,19
 546 118 546 118 471.5 53 c 128,-1,20
 397 -12 397 -12 290 -12 c 0,21,0
 182 -12 182 -12 121 49 c 1,1,-1
397.5 155.5 m 128,-1,23
 439 207 439 207 459.5 279.5 c 128,-1,24
 480 352 480 352 480 412 c 0,25,26
 480 424 480 424 477 436 c 1,27,-1
 211 149 l 1,28,29
 239 104 239 104 297 104 c 0,30,22
 356 104 356 104 397.5 155.5 c 128,-1,23
371 564 m 0,32,33
 311 564 311 564 270 512 c 128,-1,34
 229 460 229 460 209 388 c 128,-1,35
 189 316 189 316 188 255 c 0,36,37
 188 240 188 240 192 231 c 1,38,-1
 457 518 l 1,39,31
 429 564 429 564 371 564 c 0,32,33
EndSplineSet
EndChar
StartChar: Thorn
Encoding: 222 222 72
Width: 632
GlyphClass: 2
Flags: W
AnchorPoint: "Anchor-1" 408 668 basechar 0
AnchorPoint: "Anchor-0" 266 0 basechar 0
LayerCount: 2
Fore
SplineSet
167 668 m 1,0,-1
 300 668 l 1,1,-1
 276 557 l 1,2,-1
 379 557 l 2,3,4
 487 557 487 557 552 506.5 c 128,-1,5
 617 456 617 456 617 368 c 0,6,7
 617 297 617 297 585 242 c 128,-1,8
 553 187 553 187 494 156 c 128,-1,9
 435 125 435 125 356 125 c 2,10,-1
 184 125 l 1,11,-1
 158 0 l 1,12,-1
 25 0 l 1,13,-1
 167 668 l 1,0,-1
448.5 273 m 128,-1,15
 479 305 479 305 479 354 c 0,16,17
 479 396 479 396 449 419 c 128,-1,18
 419 442 419 442 368 442 c 2,19,-1
 252 442 l 1,20,-1
 209 241 l 1,21,-1
 355 241 l 2,22,14
 418 241 418 241 448.5 273 c 128,-1,15
EndSplineSet
EndChar
StartChar: eth
Encoding: 240 240 132
Width: 632
GlyphClass: 1
Flags: W
LayerCount: 2
Fore
SplineSet
158.5 13.5 m 128,-1,1
 104 39 104 39 73.5 86 c 128,-1,2
 43 133 43 133 43 196 c 0,3,4
 43 268 43 268 77 327.5 c 128,-1,5
 111 387 111 387 171 421 c 128,-1,6
 231 455 231 455 304 455 c 0,7,8
 358 455 358 455 400 435.5 c 128,-1,9
 442 416 442 416 466 379 c 1,10,11
 472 409 472 409 472 436 c 0,12,13
 472 507 472 507 434 554 c 1,14,-1
 363 494 l 1,15,-1
 323 543 l 1,16,-1
 386 594 l 1,17,18
 367 610 367 610 336 620.5 c 128,-1,19
 305 631 305 631 268 633 c 1,20,-1
 290 741 l 1,21,22
 408 731 408 731 482 674 c 1,23,-1
 557 736 l 1,24,-1
 597 687 l 1,25,-1
 531 634 l 1,26,27
 603 555 603 555 603 414 c 0,28,29
 603 317 603 317 569.5 218.5 c 128,-1,30
 536 120 536 120 464 54 c 128,-1,31
 392 -12 392 -12 282 -12 c 0,32,0
 213 -12 213 -12 158.5 13.5 c 128,-1,1
363 115 m 128,-1,34
 393 136 393 136 409.5 170.5 c 128,-1,35
 426 205 426 205 426 244 c 0,36,37
 426 290 426 290 400 320 c 128,-1,38
 374 350 374 350 321 350 c 0,39,40
 278 350 278 350 248 327.5 c 128,-1,41
 218 305 218 305 203 270 c 128,-1,42
 188 235 188 235 188 198 c 0,43,44
 188 151 188 151 213.5 122.5 c 128,-1,45
 239 94 239 94 293 94 c 0,46,33
 333 94 333 94 363 115 c 128,-1,34
EndSplineSet
EndChar
StartChar: Aogonek
Encoding: 260 260 9
Width: 632
GlyphClass: 2
Flags: W
AnchorPoint: "Anchor-1" 405 668 basechar 0
LayerCount: 2
Fore
SplineSet
328 668 m 1,0,-1
 482 668 l 1,1,-1
 547 0 l 1,2,3
 510 -4 510 -4 474 -26 c 128,-1,4
 438 -48 438 -48 438 -72 c 0,5,6
 438 -88 438 -88 451 -95 c 128,-1,7
 464 -102 464 -102 484 -102 c 0,8,9
 498 -102 498 -102 526 -98 c 1,10,-1
 511 -170 l 1,11,12
 494 -174 494 -174 471 -174 c 0,13,14
 409 -174 409 -174 362.5 -153.5 c 128,-1,15
 316 -133 316 -133 316 -93 c 0,16,17
 316 -59 316 -59 345 -34 c 128,-1,18
 374 -9 374 -9 417 7 c 1,19,-1
 407 126 l 1,20,-1
 176 126 l 1,21,-1
 113 0 l 1,22,-1
 -21 0 l 1,23,-1
 328 668 l 1,0,-1
400 243 m 1,24,-1
 377 520 l 1,25,-1
 373 520 l 1,26,-1
 233 243 l 1,27,-1
 400 243 l 1,24,-1
EndSplineSet
EndChar
StartChar: dcaron
Encoding: 271 271 130
Width: 632
GlyphClass: 1
Flags: W
LayerCount: 2
Fore
SplineSet
52.5 44.5 m 128,-1,1
 11 101 11 101 11 189 c 0,2,3
 11 266 11 266 39 340 c 128,-1,4
 67 414 67 414 123.5 462 c 128,-1,5
 180 510 180 510 261 510 c 0,6,7
 303 510 303 510 337.5 489.5 c 128,-1,8
 372 469 372 469 390 430 c 1,9,-1
 447 708 l 1,10,-1
 584 708 l 1,11,-1
 474 192 l 2,12,13
 453 94 453 94 449 0 c 1,14,-1
 319 0 l 1,15,-1
 315 53 l 1,16,17
 283 21 283 21 245.5 4.5 c 128,-1,18
 208 -12 208 -12 171 -12 c 0,19,0
 94 -12 94 -12 52.5 44.5 c 128,-1,1
303.5 132.5 m 128,-1,21
 333 167 333 167 347.5 215 c 128,-1,22
 362 263 362 263 362 302 c 0,23,24
 362 347 362 347 342.5 374 c 128,-1,25
 323 401 323 401 282 401 c 0,26,27
 239 401 239 401 209.5 369.5 c 128,-1,28
 180 338 180 338 165.5 292.5 c 128,-1,29
 151 247 151 247 151 206 c 0,30,31
 151 158 151 158 170.5 128 c 128,-1,32
 190 98 190 98 230 98 c 0,33,20
 274 98 274 98 303.5 132.5 c 128,-1,21
684 718 m 0,35,36
 700 718 700 718 709 710 c 128,-1,37
 718 702 718 702 718 689 c 0,38,39
 718 662 718 662 689 616 c 2,40,-1
 635 528 l 1,41,-1
 575 528 l 1,42,-1
 624 661 l 2,43,34
 645 718 645 718 684 718 c 0,35,36
EndSplineSet
EndChar
StartChar: dcroat
Encoding: 273 273 131
Width: 632
GlyphClass: 1
Flags: W
LayerCount: 2
Fore
SplineSet
88 45.5 m 128,-1,1
 40 103 40 103 40 195 c 0,2,3
 40 276 40 276 72 348.5 c 128,-1,4
 104 421 104 421 165 465.5 c 128,-1,5
 226 510 226 510 308 510 c 0,6,7
 361 510 361 510 402 486 c 128,-1,8
 443 462 443 462 459 418 c 1,9,-1
 487 548 l 1,10,-1
 343 548 l 1,11,-1
 359 619 l 1,12,-1
 502 619 l 1,13,-1
 521 708 l 1,14,-1
 662 708 l 1,15,-1
 643 619 l 1,16,-1
 700 619 l 1,17,-1
 685 548 l 1,18,-1
 628 548 l 1,19,-1
 552 192 l 2,20,21
 529 87 529 87 528 0 c 1,22,-1
 394 0 l 1,23,-1
 388 69 l 1,24,25
 353 28 353 28 309 8 c 128,-1,26
 265 -12 265 -12 219 -12 c 0,27,0
 136 -12 136 -12 88 45.5 c 128,-1,1
366.5 129 m 128,-1,29
 401 160 401 160 417.5 205.5 c 128,-1,30
 434 251 434 251 434 294 c 0,31,32
 434 345 434 345 409 373 c 128,-1,33
 384 401 384 401 335 401 c 0,34,35
 284 401 284 401 250 370 c 128,-1,36
 216 339 216 339 200.5 294.5 c 128,-1,37
 185 250 185 250 185 211 c 0,38,39
 185 160 185 160 210 129 c 128,-1,40
 235 98 235 98 282 98 c 0,41,28
 332 98 332 98 366.5 129 c 128,-1,29
EndSplineSet
EndChar
StartChar: Eogonek
Encoding: 280 280 31
Width: 632
GlyphClass: 2
Flags: W
AnchorPoint: "Anchor-1" 289 668 basechar 0
LayerCount: 2
Fore
SplineSet
188 668 m 1,0,-1
 644 668 l 1,1,-1
 617 540 l 1,2,-1
 306 540 l 1,3,-1
 277 407 l 1,4,-1
 473 407 l 1,5,-1
 446 280 l 1,6,-1
 250 280 l 1,7,-1
 218 128 l 1,8,-1
 533 128 l 1,9,-1
 506 0 l 1,10,11
 469 -4 469 -4 433 -26 c 128,-1,12
 397 -48 397 -48 397 -72 c 0,13,14
 397 -88 397 -88 410 -95 c 128,-1,15
 423 -102 423 -102 443 -102 c 0,16,17
 456 -102 456 -102 484 -98 c 1,18,-1
 469 -170 l 1,19,20
 453 -174 453 -174 430 -174 c 0,21,22
 368 -174 368 -174 321.5 -153.5 c 128,-1,23
 275 -133 275 -133 275 -93 c 0,24,25
 275 -38 275 -38 358 0 c 1,26,-1
 46 0 l 1,27,-1
 188 668 l 1,0,-1
EndSplineSet
EndChar
StartChar: eogonek
Encoding: 281 281 141
Width: 632
GlyphClass: 2
Flags: W
AnchorPoint: "Anchor-1" 261 496 basechar 0
LayerCount: 2
Fore
SplineSet
282.5 -155.5 m 128,-1,1
 238 -135 238 -135 238 -91 c 0,2,3
 238 -70 238 -70 250 -49 c 128,-1,4
 262 -28 262 -28 283 -10 c 1,5,6
 185 -4 185 -4 123.5 54.5 c 128,-1,7
 62 113 62 113 62 211 c 0,8,9
 62 293 62 293 100 361.5 c 128,-1,10
 138 430 138 430 204.5 470 c 128,-1,11
 271 510 271 510 352 510 c 0,12,13
 425 510 425 510 476.5 481 c 128,-1,14
 528 452 528 452 554.5 401.5 c 128,-1,15
 581 351 581 351 581 286 c 0,16,17
 581 254 581 254 573 214 c 1,18,-1
 195 214 l 1,19,20
 197 157 197 157 229.5 127 c 128,-1,21
 262 97 262 97 322 97 c 0,22,23
 383 97 383 97 419 136 c 1,24,-1
 526 92 l 1,25,26
 493 50 493 50 427 12 c 0,27,28
 398 -4 398 -4 378 -25.5 c 128,-1,29
 358 -47 358 -47 358 -70 c 0,30,31
 358 -87 358 -87 371 -96 c 128,-1,32
 384 -105 384 -105 407 -105 c 0,33,34
 433 -105 433 -105 445 -101 c 1,35,-1
 430 -173 l 1,36,37
 415 -176 415 -176 395 -176 c 0,38,0
 327 -176 327 -176 282.5 -155.5 c 128,-1,1
430.5 375.5 m 128,-1,40
 401 405 401 405 347 405 c 256,41,42
 293 405 293 405 258.5 375 c 128,-1,43
 224 345 224 345 207 298 c 1,44,-1
 458 298 l 1,45,39
 460 346 460 346 430.5 375.5 c 128,-1,40
EndSplineSet
EndChar
StartChar: uni0123
Encoding: 291 291 145
Width: 632
GlyphClass: 2
Flags: W
AnchorPoint: "Anchor-1" 435 770 basechar 0
AnchorPoint: "Anchor-0" 217 -251 basechar 0
LayerCount: 2
Fore
SplineSet
121.5 -172.5 m 128,-1,1
 59 -144 59 -144 35 -83 c 1,2,-1
 150 -38 l 1,3,4
 165 -68 165 -68 196.5 -81 c 128,-1,5
 228 -94 228 -94 263 -94 c 0,6,7
 304 -94 304 -94 334 -73 c 128,-1,8
 364 -52 364 -52 374 -4 c 2,9,-1
 394 87 l 1,10,11
 320 17 320 17 227 17 c 0,12,13
 172 17 172 17 131.5 44.5 c 128,-1,14
 91 72 91 72 69.5 119 c 128,-1,15
 48 166 48 166 48 223 c 0,16,17
 48 299 48 299 79 365 c 128,-1,18
 110 431 110 431 168.5 470.5 c 128,-1,19
 227 510 227 510 305 510 c 0,20,21
 354 510 354 510 397.5 486.5 c 128,-1,22
 441 463 441 463 462 421 c 1,23,-1
 498 496 l 1,24,-1
 620 496 l 1,25,-1
 517 7 l 2,26,27
 472 -201 472 -201 261 -201 c 0,28,0
 184 -201 184 -201 121.5 -172.5 c 128,-1,1
382.5 158.5 m 128,-1,30
 420 191 420 191 434 256 c 0,31,32
 438 276 438 276 438 297 c 0,33,34
 438 346 438 346 411 373.5 c 128,-1,35
 384 401 384 401 335 401 c 256,36,37
 286 401 286 401 254 376 c 128,-1,38
 222 351 222 351 207.5 313.5 c 128,-1,39
 193 276 193 276 193 237 c 0,40,41
 193 188 193 188 219.5 157 c 128,-1,42
 246 126 246 126 296 126 c 0,43,29
 345 126 345 126 382.5 158.5 c 128,-1,30
309 655 m 0,45,46
 309 696 309 696 336.5 723.5 c 128,-1,47
 364 751 364 751 406 762 c 128,-1,48
 448 773 448 773 490 769 c 1,49,-1
 529 722 l 1,50,51
 486 725 486 725 451.5 710 c 128,-1,52
 417 695 417 695 417 657 c 0,53,54
 417 639 417 639 429 625 c 128,-1,55
 441 611 441 611 461 602 c 1,56,-1
 370 570 l 1,57,44
 309 603 309 603 309 655 c 0,45,46
EndSplineSet
EndChar
StartChar: Hbar
Encoding: 294 294 38
Width: 632
GlyphClass: 1
Flags: W
LayerCount: 2
Fore
SplineSet
108 502 m 1,0,-1
 61 502 l 1,1,-1
 79 587 l 1,2,-1
 126 587 l 1,3,-1
 143 668 l 1,4,-1
 288 668 l 1,5,-1
 271 587 l 1,6,-1
 505 587 l 1,7,-1
 522 668 l 1,8,-1
 667 668 l 1,9,-1
 650 587 l 1,10,-1
 697 587 l 1,11,-1
 679 502 l 1,12,-1
 632 502 l 1,13,-1
 525 0 l 1,14,-1
 380 0 l 1,15,-1
 439 280 l 1,16,-1
 206 280 l 1,17,-1
 146 0 l 1,18,-1
 1 0 l 1,19,-1
 108 502 l 1,0,-1
466 407 m 1,20,-1
 487 502 l 1,21,-1
 253 502 l 1,22,-1
 233 407 l 1,23,-1
 466 407 l 1,20,-1
EndSplineSet
EndChar
StartChar: hbar
Encoding: 295 295 148
Width: 632
GlyphClass: 1
Flags: W
LayerCount: 2
Fore
SplineSet
148 548 m 1,0,-1
 91 548 l 1,1,-1
 107 619 l 1,2,-1
 163 619 l 1,3,-1
 182 708 l 1,4,-1
 323 708 l 1,5,-1
 304 619 l 1,6,-1
 448 619 l 1,7,-1
 432 548 l 1,8,-1
 290 548 l 1,9,-1
 264 429 l 1,10,11
 289 460 289 460 334 485 c 128,-1,12
 379 510 379 510 430 510 c 0,13,14
 503 510 503 510 538.5 474 c 128,-1,15
 574 438 574 438 574 372 c 0,16,17
 574 342 574 342 566 302 c 2,18,-1
 502 0 l 1,19,-1
 361 0 l 1,20,-1
 421 281 l 2,21,22
 426 309 426 309 426 328 c 0,23,24
 426 401 426 401 357 401 c 0,25,26
 310 401 310 401 275.5 362 c 128,-1,27
 241 323 241 323 226 253 c 2,28,-1
 173 0 l 1,29,-1
 32 0 l 1,30,-1
 148 548 l 1,0,-1
EndSplineSet
EndChar
StartChar: Iogonek
Encoding: 302 302 47
Width: 632
GlyphClass: 2
Flags: W
AnchorPoint: "Anchor-1" 405 668 basechar 0
LayerCount: 2
Fore
SplineSet
86 106 m 1,0,-1
 213 106 l 1,1,-1
 310 562 l 1,2,-1
 183 562 l 1,3,-1
 205 668 l 1,4,-1
 605 668 l 1,5,-1
 582 562 l 1,6,-1
 455 562 l 1,7,-1
 358 106 l 1,8,-1
 485 106 l 1,9,-1
 463 0 l 1,10,11
 425 -4 425 -4 389 -26 c 128,-1,12
 353 -48 353 -48 353 -72 c 0,13,14
 353 -88 353 -88 366 -95 c 128,-1,15
 379 -102 379 -102 400 -102 c 0,16,17
 413 -102 413 -102 441 -98 c 1,18,-1
 426 -170 l 1,19,20
 410 -174 410 -174 386 -174 c 0,21,22
 325 -174 325 -174 278.5 -153.5 c 128,-1,23
 232 -133 232 -133 232 -93 c 0,24,25
 232 -38 232 -38 315 0 c 1,26,-1
 63 0 l 1,27,-1
 86 106 l 1,0,-1
EndSplineSet
EndChar
StartChar: Lslash
Encoding: 321 321 55
Width: 632
GlyphClass: 1
Flags: W
LayerCount: 2
Fore
SplineSet
107 231 m 1,0,-1
 17 184 l 1,1,-1
 42 305 l 1,2,-1
 132 351 l 1,3,-1
 200 668 l 1,4,-1
 345 668 l 1,5,-1
 295 435 l 1,6,-1
 476 527 l 1,7,-1
 451 406 l 1,8,-1
 270 314 l 1,9,-1
 230 128 l 1,10,-1
 558 128 l 1,11,-1
 531 0 l 1,12,-1
 58 0 l 1,13,-1
 107 231 l 1,0,-1
EndSplineSet
EndChar
StartChar: OE
Encoding: 338 338 70
Width: 632
GlyphClass: 2
Flags: W
AnchorPoint: "Anchor-1" 407 668 basechar 0
AnchorPoint: "Anchor-0" 265 0 basechar 0
LayerCount: 2
Fore
SplineSet
47 48.5 m 128,-1,1
 10 109 10 109 10 207 c 0,2,3
 10 302 10 302 40.5 413 c 128,-1,4
 71 524 71 524 133 602 c 128,-1,5
 195 680 195 680 285 680 c 0,6,7
 363 680 363 680 402 611 c 1,8,-1
 414 668 l 1,9,-1
 715 668 l 1,10,-1
 690 556 l 1,11,-1
 497 556 l 1,12,-1
 464 399 l 1,13,-1
 575 399 l 1,14,-1
 551 288 l 1,15,-1
 440 288 l 1,16,-1
 404 112 l 1,17,-1
 599 112 l 1,18,-1
 575 0 l 1,19,-1
 272 0 l 1,20,-1
 279 33 l 1,21,22
 228 -12 228 -12 167 -12 c 0,23,0
 84 -12 84 -12 47 48.5 c 128,-1,1
284.5 158.5 m 128,-1,25
 321 225 321 225 339.5 313 c 128,-1,26
 358 401 358 401 358 459 c 0,27,28
 358 512 358 512 341 544 c 128,-1,29
 324 576 324 576 286 576 c 0,30,31
 236 576 236 576 200 508 c 128,-1,32
 164 440 164 440 145.5 350.5 c 128,-1,33
 127 261 127 261 127 206 c 0,34,35
 127 92 127 92 198 92 c 0,36,24
 248 92 248 92 284.5 158.5 c 128,-1,25
EndSplineSet
EndChar
StartChar: oe
Encoding: 339 339 181
Width: 632
GlyphClass: 2
Flags: W
AnchorPoint: "Anchor-1" 371 496 basechar 0
AnchorPoint: "Anchor-0" 266 0 basechar 0
LayerCount: 2
Fore
SplineSet
285 66 m 1,1,2
 257 27 257 27 222 7.5 c 128,-1,3
 187 -12 187 -12 150 -12 c 0,4,5
 77 -12 77 -12 43 38 c 128,-1,6
 9 88 9 88 9 169 c 0,7,8
 9 240 9 240 33 319.5 c 128,-1,9
 57 399 57 399 108 454.5 c 128,-1,10
 159 510 159 510 234 510 c 0,11,12
 322 510 322 510 353 428 c 1,13,14
 410 510 410 510 494 510 c 0,15,16
 566 510 566 510 600 458 c 128,-1,17
 634 406 634 406 634 324 c 0,18,19
 634 274 634 274 621 215 c 1,20,-1
 360 215 l 1,21,22
 358 191 358 191 358 180 c 0,23,24
 358 132 358 132 374.5 106.5 c 128,-1,25
 391 81 391 81 424 81 c 0,26,27
 469 81 469 81 497 128 c 1,28,-1
 583 93 l 1,29,30
 547 40 547 40 502 14 c 128,-1,31
 457 -12 457 -12 409 -12 c 0,32,0
 317 -12 317 -12 285 66 c 1,1,2
230 131 m 128,-1,34
 256 169 256 169 268.5 221 c 128,-1,35
 281 273 281 273 281 314 c 0,36,37
 281 405 281 405 223 405 c 0,38,39
 187 405 187 405 161 367 c 128,-1,40
 135 329 135 329 122.5 277.5 c 128,-1,41
 110 226 110 226 110 186 c 0,42,43
 110 145 110 145 123 119 c 128,-1,44
 136 93 136 93 167 93 c 0,45,33
 204 93 204 93 230 131 c 128,-1,34
534 337 m 0,47,48
 534 372 534 372 520.5 392.5 c 128,-1,49
 507 413 507 413 478 413 c 0,50,51
 442 413 442 413 416.5 380 c 128,-1,52
 391 347 391 347 376 295 c 1,53,-1
 530 295 l 1,54,46
 534 325 534 325 534 337 c 0,47,48
EndSplineSet
EndChar
StartChar: Scedilla
Encoding: 350 350 80
Width: 632
GlyphClass: 2
Flags: W
AnchorPoint: "Anchor-1" 395 668 basechar 0
LayerCount: 2
Fore
SplineSet
164 -163 m 1,1,-1
 188 -119 l 1,2,3
 200 -126 200 -126 219 -132 c 128,-1,4
 238 -138 238 -138 255 -138 c 256,5,6
 272 -138 272 -138 283 -130 c 128,-1,7
 294 -122 294 -122 294 -108 c 0,8,9
 294 -97 294 -97 285 -90 c 128,-1,10
 276 -83 276 -83 262 -83 c 0,11,12
 249 -83 249 -83 237 -85 c 0,13,14
 226 -87 226 -87 220 -82.5 c 128,-1,15
 214 -78 214 -78 214 -70 c 0,16,17
 214 -61 214 -61 221 -53 c 2,18,-1
 257 -10 l 1,19,20
 174 -1 174 -1 115.5 43.5 c 128,-1,21
 57 88 57 88 38 159 c 1,22,-1
 172 203 l 1,23,24
 181 158 181 158 221 131.5 c 128,-1,25
 261 105 261 105 313 105 c 0,26,27
 363 105 363 105 395.5 129.5 c 128,-1,28
 428 154 428 154 428 193 c 0,29,30
 428 246 428 246 326 277 c 2,31,-1
 269 296 l 2,32,33
 193 320 193 320 152 361 c 128,-1,34
 111 402 111 402 111 467 c 0,35,36
 111 530 111 530 148.5 578.5 c 128,-1,37
 186 627 186 627 247.5 653.5 c 128,-1,38
 309 680 309 680 381 680 c 0,39,40
 467 680 467 680 531 642.5 c 128,-1,41
 595 605 595 605 616 535 c 1,42,-1
 484 490 l 1,43,44
 472 523 472 523 440 543 c 128,-1,45
 408 563 408 563 365 563 c 256,46,47
 322 563 322 563 290.5 543 c 128,-1,48
 259 523 259 523 259 488 c 0,49,50
 259 441 259 441 325 418 c 2,51,-1
 392 395 l 2,52,53
 487 363 487 363 531.5 322 c 128,-1,54
 576 281 576 281 576 219 c 0,55,56
 576 155 576 155 541.5 103.5 c 128,-1,57
 507 52 507 52 446 21 c 128,-1,58
 385 -10 385 -10 309 -12 c 1,59,-1
 280 -47 l 1,60,61
 285 -46 285 -46 296 -46 c 0,62,63
 332 -46 332 -46 357 -62 c 128,-1,64
 382 -78 382 -78 382 -106 c 0,65,66
 382 -145 382 -145 349.5 -165.5 c 128,-1,67
 317 -186 317 -186 267 -186 c 0,68,0
 212 -186 212 -186 164 -163 c 1,1,-1
EndSplineSet
Substitution2: "'locl' Localized Forms in Latin lookup 4 subtable" uni0218
AlternateSubs2: "'aalt' Access All Alternates in Latin lookup 0 subtable" uni0218
EndChar
StartChar: uni0162
Encoding: 354 354 85
Width: 632
GlyphClass: 2
Flags: W
AnchorPoint: "Anchor-1" 405 668 basechar 0
LayerCount: 2
Fore
SplineSet
305 540 m 1,0,-1
 114 540 l 1,1,-1
 141 668 l 1,2,-1
 669 668 l 1,3,-1
 642 540 l 1,4,-1
 450 540 l 1,5,-1
 336 0 l 1,6,-1
 292 0 l 1,7,-1
 253 -47 l 1,8,9
 258 -46 258 -46 269 -46 c 0,10,11
 305 -46 305 -46 330 -62 c 128,-1,12
 355 -78 355 -78 355 -106 c 0,13,14
 355 -145 355 -145 322.5 -165.5 c 128,-1,15
 290 -186 290 -186 240 -186 c 0,16,17
 185 -186 185 -186 137 -163 c 1,18,-1
 161 -119 l 1,19,20
 174 -127 174 -127 192.5 -132.5 c 128,-1,21
 211 -138 211 -138 228 -138 c 0,22,23
 244 -138 244 -138 255.5 -130 c 128,-1,24
 267 -122 267 -122 267 -108 c 0,25,26
 267 -97 267 -97 258 -90 c 128,-1,27
 249 -83 249 -83 235 -83 c 0,28,29
 222 -83 222 -83 210 -85 c 0,30,31
 199 -87 199 -87 193 -82.5 c 128,-1,32
 187 -78 187 -78 187 -70 c 0,33,34
 187 -61 187 -61 194 -53 c 2,35,-1
 238 0 l 1,36,-1
 190 0 l 1,37,-1
 305 540 l 1,0,-1
EndSplineSet
Substitution2: "'locl' Localized Forms in Latin lookup 4 subtable" uni021A
AlternateSubs2: "'aalt' Access All Alternates in Latin lookup 0 subtable" uni021A
EndChar
StartChar: uni0163
Encoding: 355 355 196
Width: 632
GlyphClass: 2
Flags: W
AnchorPoint: "Anchor-3" 433 551 basechar 0
AnchorPoint: "Anchor-1" 340 496 basechar 0
LayerCount: 2
Fore
SplineSet
154 -163 m 1,1,-1
 178 -119 l 1,2,3
 190 -126 190 -126 208.5 -132 c 128,-1,4
 227 -138 227 -138 245 -138 c 0,5,6
 261 -138 261 -138 272.5 -130 c 128,-1,7
 284 -122 284 -122 284 -108 c 0,8,9
 284 -97 284 -97 275 -90 c 128,-1,10
 266 -83 266 -83 252 -83 c 0,11,12
 239 -83 239 -83 227 -85 c 0,13,14
 216 -87 216 -87 209.5 -82.5 c 128,-1,15
 203 -78 203 -78 203 -71 c 0,16,17
 203 -63 203 -63 211 -53 c 2,18,-1
 259 5 l 1,19,20
 212 12 212 12 191 34 c 128,-1,21
 170 56 170 56 170 97 c 0,22,23
 170 116 170 116 177 153 c 2,24,-1
 227 389 l 1,25,-1
 127 389 l 1,26,-1
 150 496 l 1,27,-1
 251 496 l 1,28,-1
 277 620 l 1,29,-1
 418 620 l 1,30,-1
 392 496 l 1,31,-1
 595 496 l 1,32,-1
 572 389 l 1,33,-1
 368 389 l 1,34,-1
 323 176 l 2,35,36
 320 161 320 161 320 150 c 0,37,38
 320 128 320 128 334.5 119.5 c 128,-1,39
 349 111 349 111 384 111 c 2,40,-1
 463 111 l 1,41,-1
 439 0 l 1,42,-1
 309 0 l 1,43,-1
 270 -47 l 1,44,45
 275 -46 275 -46 286 -46 c 0,46,47
 322 -46 322 -46 347 -62 c 128,-1,48
 372 -78 372 -78 372 -106 c 0,49,50
 372 -145 372 -145 339 -165.5 c 128,-1,51
 306 -186 306 -186 257 -186 c 0,52,0
 202 -186 202 -186 154 -163 c 1,1,-1
EndSplineSet
Substitution2: "'locl' Localized Forms in Latin lookup 4 subtable" uni021B
AlternateSubs2: "'aalt' Access All Alternates in Latin lookup 0 subtable" uni021B
EndChar
StartChar: Uring
Encoding: 366 366 95
Width: 632
GlyphClass: 2
Flags: W
AnchorPoint: "Anchor-3" 719 668 basechar 0
AnchorPoint: "Anchor-1" 429 914 basechar 0
LayerCount: 2
Fore
SplineSet
118.5 37 m 128,-1,1
 55 86 55 86 55 189 c 0,2,3
 55 234 55 234 67 289 c 2,4,-1
 147 668 l 1,5,-1
 293 668 l 1,6,-1
 205 255 l 2,7,8
 198 220 198 220 198 200 c 0,9,10
 198 106 198 106 305 106 c 0,11,12
 357 106 357 106 384 137 c 128,-1,13
 411 168 411 168 425 231 c 2,14,-1
 517 668 l 1,15,-1
 663 668 l 1,16,-1
 571 236 l 2,17,18
 544 108 544 108 481.5 48 c 128,-1,19
 419 -12 419 -12 308 -12 c 0,20,0
 182 -12 182 -12 118.5 37 c 128,-1,1
338.5 675.5 m 128,-1,22
 309 693 309 693 292 722.5 c 128,-1,23
 275 752 275 752 275 787 c 0,24,25
 275 840 275 840 312.5 877 c 128,-1,26
 350 914 350 914 403 914 c 256,27,28
 456 914 456 914 493.5 877 c 128,-1,29
 531 840 531 840 531 787 c 0,30,31
 531 752 531 752 514 722.5 c 128,-1,32
 497 693 497 693 467.5 675.5 c 128,-1,33
 438 658 438 658 403 658 c 256,34,21
 368 658 368 658 338.5 675.5 c 128,-1,22
436 753 m 128,-1,36
 450 767 450 767 450 787 c 256,37,38
 450 807 450 807 436 821 c 128,-1,39
 422 835 422 835 402 835 c 256,40,41
 382 835 382 835 368 821 c 128,-1,42
 354 807 354 807 354 787 c 256,43,44
 354 767 354 767 368 753 c 128,-1,45
 382 739 382 739 402 739 c 256,46,35
 422 739 422 739 436 753 c 128,-1,36
EndSplineSet
EndChar
StartChar: uni0237
Encoding: 567 567 159
Width: 632
GlyphClass: 2
Flags: W
AnchorPoint: "Anchor-1" 412 496 basechar 0
AnchorPoint: "Anchor-0" 238 -251 basechar 0
LayerCount: 2
Fore
SplineSet
12 -51 m 1,0,-1
 193 -51 l 2,1,2
 219 -51 219 -51 230 -40.5 c 128,-1,3
 241 -30 241 -30 247 -2 c 2,4,-1
 329 389 l 1,5,-1
 188 389 l 1,6,-1
 211 496 l 1,7,-1
 493 496 l 1,8,-1
 381 -27 l 2,9,10
 365 -103 365 -103 327.5 -132.5 c 128,-1,11
 290 -162 290 -162 215 -162 c 2,12,-1
 -12 -162 l 1,13,-1
 12 -51 l 1,0,-1
EndSplineSet
EndChar
StartChar: acutecomb
Encoding: 769 769 342
Width: 0
GlyphClass: 4
Flags: W
AnchorPoint: "Anchor-5" 372 723 basemark 0
AnchorPoint: "Anchor-5" 324 496 mark 0
AnchorPoint: "Anchor-1" 324 496 mark 0
LayerCount: 2
Fore
SplineSet
438 715 m 128,-1,1
 452 723 452 723 471 723 c 0,2,3
 493 723 493 723 505.5 712 c 128,-1,4
 518 701 518 701 518 684 c 0,5,6
 518 663 518 663 505.5 648 c 128,-1,7
 493 633 493 633 467 617 c 2,8,-1
 400 574 l 1,9,-1
 285 574 l 1,10,-1
 405 689 l 2,11,0
 424 707 424 707 438 715 c 128,-1,1
EndSplineSet
Substitution2: "Single Substitution lookup 12 subtable" acutecomb.case
Substitution2: "'case' Case-Sensitive Forms in Latin lookup 9 subtable" acutecomb.case
AlternateSubs2: "'aalt' Access All Alternates in Latin lookup 0 subtable" acutecomb.case
EndChar
StartChar: uni0302
Encoding: 770 770 347
Width: 0
GlyphClass: 4
Flags: W
AnchorPoint: "Anchor-5" 417 720 basemark 0
AnchorPoint: "Anchor-5" 369 496 mark 0
AnchorPoint: "Anchor-1" 369 496 mark 0
LayerCount: 2
Fore
SplineSet
417 720 m 256,1,2
 445 720 445 720 462 700 c 2,3,-1
 571 574 l 1,4,-1
 459 574 l 1,5,-1
 403 635 l 1,6,-1
 322 574 l 1,7,-1
 199 574 l 1,8,-1
 364 700 l 2,9,0
 389 720 389 720 417 720 c 256,1,2
EndSplineSet
Substitution2: "Single Substitution lookup 12 subtable" uni0302.case
Substitution2: "'case' Case-Sensitive Forms in Latin lookup 9 subtable" uni0302.case
AlternateSubs2: "'aalt' Access All Alternates in Latin lookup 0 subtable" uni0302.case
EndChar
StartChar: uni0307
Encoding: 775 775 337
Width: 0
GlyphClass: 4
Flags: W
AnchorPoint: "Anchor-5" 416 718 basemark 0
AnchorPoint: "Anchor-5" 368 496 mark 0
AnchorPoint: "Anchor-1" 368 496 mark 0
LayerCount: 2
Fore
SplineSet
350.5 596.5 m 128,-1,1
 329 618 329 618 329 647 c 256,2,3
 329 676 329 676 350.5 697 c 128,-1,4
 372 718 372 718 401 718 c 256,5,6
 430 718 430 718 451 697 c 128,-1,7
 472 676 472 676 472 647 c 256,8,9
 472 618 472 618 451 596.5 c 128,-1,10
 430 575 430 575 401 575 c 256,11,0
 372 575 372 575 350.5 596.5 c 128,-1,1
EndSplineSet
Substitution2: "Single Substitution lookup 12 subtable" uni0307.case
Substitution2: "'case' Case-Sensitive Forms in Latin lookup 9 subtable" uni0307.case
AlternateSubs2: "'aalt' Access All Alternates in Latin lookup 0 subtable" uni0307.case
EndChar
StartChar: uni030A
Encoding: 778 778 353
Width: 0
GlyphClass: 4
Flags: W
AnchorPoint: "Anchor-5" 431 791 basemark 0
AnchorPoint: "Anchor-5" 368 496 mark 0
AnchorPoint: "Anchor-1" 368 496 mark 0
LayerCount: 2
Fore
SplineSet
317.5 581 m 128,-1,1
 281 617 281 617 281 668 c 256,2,3
 281 719 281 719 317.5 755 c 128,-1,4
 354 791 354 791 405 791 c 0,5,6
 457 791 457 791 493 755 c 128,-1,7
 529 719 529 719 529 668 c 256,8,9
 529 617 529 617 493 581 c 128,-1,10
 457 545 457 545 405 545 c 0,11,0
 354 545 354 545 317.5 581 c 128,-1,1
439.5 632.5 m 128,-1,13
 454 647 454 647 454 668 c 256,14,15
 454 689 454 689 439.5 703.5 c 128,-1,16
 425 718 425 718 405 718 c 256,17,18
 385 718 385 718 370.5 703.5 c 128,-1,19
 356 689 356 689 356 668 c 256,20,21
 356 647 356 647 370.5 632.5 c 128,-1,22
 385 618 385 618 405 618 c 256,23,12
 425 618 425 618 439.5 632.5 c 128,-1,13
EndSplineSet
Substitution2: "Single Substitution lookup 12 subtable" uni030A.case
Substitution2: "'case' Case-Sensitive Forms in Latin lookup 9 subtable" uni030A.case
AlternateSubs2: "'aalt' Access All Alternates in Latin lookup 0 subtable" uni030A.case
EndChar
StartChar: uni030C
Encoding: 780 780 349
Width: 0
GlyphClass: 4
Flags: W
AnchorPoint: "Anchor-5" 415 714 basemark 0
AnchorPoint: "Anchor-5" 369 496 mark 0
AnchorPoint: "Anchor-1" 369 496 mark 0
LayerCount: 2
Fore
SplineSet
340 588 m 2,1,-1
 230 714 l 1,2,-1
 343 714 l 1,3,-1
 398 654 l 1,4,-1
 480 714 l 1,5,-1
 601 714 l 1,6,-1
 438 588 l 2,7,8
 412 568 412 568 384 568 c 0,9,0
 357 568 357 568 340 588 c 2,1,-1
EndSplineSet
Substitution2: "Single Substitution lookup 12 subtable" uni030C.case
Substitution2: "'case' Case-Sensitive Forms in Latin lookup 9 subtable" uni030C.case
AlternateSubs2: "'aalt' Access All Alternates in Latin lookup 0 subtable" uni030C.case
EndChar
StartChar: uni0326
Encoding: 806 806 359
Width: 0
GlyphClass: 4
Flags: W
AnchorPoint: "Anchor-4" 211 -248 basemark 0
AnchorPoint: "Anchor-4" 264 0 mark 0
AnchorPoint: "Anchor-0" 264 0 mark 0
LayerCount: 2
Fore
SplineSet
193.5 -187 m 128,-1,1
 228 -172 228 -172 228 -134 c 0,2,3
 228 -116 228 -116 216.5 -102 c 128,-1,4
 205 -88 205 -88 185 -79 c 1,5,-1
 275 -47 l 1,6,7
 337 -80 337 -80 337 -132 c 0,8,9
 337 -174 337 -174 309.5 -201 c 128,-1,10
 282 -228 282 -228 240 -239 c 128,-1,11
 198 -250 198 -250 155 -246 c 1,12,-1
 116 -199 l 1,13,0
 159 -202 159 -202 193.5 -187 c 128,-1,1
EndSplineSet
EndChar
StartChar: uni0327
Encoding: 807 807 360
Width: 0
GlyphClass: 4
Flags: W
AnchorPoint: "Anchor-4" 214 -186 basemark 0
AnchorPoint: "Anchor-4" 253 0 mark 0
AnchorPoint: "Anchor-0" 253 0 mark 0
LayerCount: 2
Fore
SplineSet
125 -163 m 1,1,-1
 149 -119 l 1,2,3
 161 -126 161 -126 179.5 -132 c 128,-1,4
 198 -138 198 -138 216 -138 c 0,5,6
 232 -138 232 -138 243.5 -130 c 128,-1,7
 255 -122 255 -122 255 -108 c 0,8,9
 255 -97 255 -97 246 -90 c 128,-1,10
 237 -83 237 -83 223 -83 c 0,11,12
 211 -83 211 -83 197 -85 c 0,13,14
 186 -87 186 -87 180 -82.5 c 128,-1,15
 174 -78 174 -78 174 -71 c 0,16,17
 174 -63 174 -63 182 -53 c 2,18,-1
 248 27 l 1,19,-1
 283 4 l 1,20,-1
 240 -47 l 1,21,22
 246 -46 246 -46 257 -46 c 0,23,24
 293 -46 293 -46 318 -62 c 128,-1,25
 343 -78 343 -78 343 -106 c 0,26,27
 343 -145 343 -145 310 -165.5 c 128,-1,28
 277 -186 277 -186 228 -186 c 0,29,0
 173 -186 173 -186 125 -163 c 1,1,-1
EndSplineSet
EndChar
StartChar: uni03BC
Encoding: 956 956 227
Width: 632
GlyphClass: 1
Flags: W
LayerCount: 2
Fore
SplineSet
120 496 m 1,0,-1
 261 496 l 1,1,-1
 201 215 l 2,2,3
 195 190 195 190 195 169 c 0,4,5
 195 97 195 97 260 97 c 0,6,7
 302 97 302 97 336 136.5 c 128,-1,8
 370 176 370 176 385 244 c 2,9,-1
 438 496 l 1,10,-1
 580 496 l 1,11,-1
 511 176 l 2,12,13
 507 159 507 159 507 144 c 0,14,15
 507 126 507 126 517.5 119.5 c 128,-1,16
 528 113 528 113 554 113 c 2,17,-1
 572 113 l 1,18,-1
 548 0 l 1,19,-1
 472 0 l 2,20,21
 410 0 410 0 385 16.5 c 128,-1,22
 360 33 360 33 355 66 c 1,23,24
 322 24 322 24 282.5 6 c 128,-1,25
 243 -12 243 -12 205 -12 c 0,26,27
 173 -12 173 -12 156 1 c 1,28,-1
 121 -162 l 1,29,-1
 -20 -162 l 1,30,-1
 120 496 l 1,0,-1
EndSplineSet
EndChar
StartChar: pi
Encoding: 960 960 228
Width: 632
GlyphClass: 1
Flags: W
LayerCount: 2
Fore
SplineSet
144 391 m 1,0,-1
 57 391 l 1,1,-1
 79 496 l 1,2,-1
 635 496 l 1,3,-1
 613 391 l 1,4,-1
 525 391 l 1,5,-1
 474 149 l 2,6,7
 471 137 471 137 471 128 c 0,8,9
 471 111 471 111 483.5 104 c 128,-1,10
 496 97 496 97 525 97 c 2,11,-1
 550 97 l 1,12,-1
 529 0 l 1,13,-1
 478 0 l 2,14,15
 405 0 405 0 375 17.5 c 128,-1,16
 345 35 345 35 345 80 c 0,17,18
 345 101 345 101 351 129 c 2,19,-1
 407 391 l 1,20,-1
 263 391 l 1,21,-1
 179 0 l 1,22,-1
 61 0 l 1,23,-1
 144 391 l 1,0,-1
EndSplineSet
EndChar
StartChar: emdash
Encoding: 8212 8212 266
Width: 632
GlyphClass: 1
Flags: W
LayerCount: 2
Fore
SplineSet
41 308 m 1,0,-1
 619 308 l 1,1,-1
 593 190 l 1,2,-1
 15 190 l 1,3,-1
 41 308 l 1,0,-1
EndSplineSet
EndChar
StartChar: quoteright
Encoding: 8217 8217 279
Width: 632
GlyphClass: 1
Flags: W
LayerCount: 2
Fore
SplineSet
303 524 m 128,-1,1
 287 550 287 550 287 579 c 0,2,3
 287 621 287 621 316.5 650.5 c 128,-1,4
 346 680 346 680 389 680 c 0,5,6
 430 680 430 680 459 652 c 128,-1,7
 488 624 488 624 488 585 c 0,8,9
 488 567 488 567 482.5 551.5 c 128,-1,10
 477 536 477 536 465 517 c 2,11,-1
 348 333 l 1,12,-1
 249 333 l 1,13,-1
 348 487 l 1,14,0
 319 498 319 498 303 524 c 128,-1,1
EndSplineSet
EndChar
StartChar: uni20B9
Encoding: 8377 8377 306
Width: 632
GlyphClass: 1
Flags: W
LayerCount: 2
Fore
SplineSet
82 289 m 1,0,-1
 96 352 l 1,1,-1
 271 352 l 2,2,3
 314 352 314 352 340.5 369.5 c 128,-1,4
 367 387 367 387 377 418 c 1,5,-1
 110 418 l 1,6,-1
 124 487 l 1,7,-1
 387 487 l 1,8,9
 378 553 378 553 274 553 c 2,10,-1
 139 553 l 1,11,-1
 163 668 l 1,12,-1
 664 668 l 1,13,-1
 649 599 l 1,14,-1
 481 599 l 1,15,16
 528 553 528 553 531 487 c 1,17,-1
 626 487 l 1,18,-1
 611 418 l 1,19,-1
 525 418 l 1,20,21
 509 343 509 343 451 295.5 c 128,-1,22
 393 248 393 248 301 241 c 1,23,-1
 284 241 l 1,24,-1
 475 0 l 1,25,-1
 306 0 l 1,26,-1
 82 289 l 1,0,-1
EndSplineSet
EndChar
StartChar: uni2113
Encoding: 8467 8467 299
Width: 632
GlyphClass: 1
Flags: W
LayerCount: 2
Fore
SplineSet
197 24 m 128,-1,1
 155 60 155 60 155 125 c 0,2,3
 155 133 155 133 157 151 c 2,4,-1
 159 163 l 1,5,-1
 85 117 l 1,6,-1
 105 215 l 1,7,-1
 181 263 l 1,8,-1
 226 478 l 2,9,10
 269 680 269 680 424 680 c 0,11,12
 500 680 500 680 539 646.5 c 128,-1,13
 578 613 578 613 578 555 c 0,14,15
 578 492 578 492 540.5 439 c 128,-1,16
 503 386 503 386 450 346.5 c 128,-1,17
 397 307 397 307 319 260 c 1,18,-1
 304 188 l 2,19,20
 300 164 300 164 300 153 c 0,21,22
 300 99 300 99 356 99 c 0,23,24
 396 99 396 99 434 123 c 1,25,-1
 469 35 l 1,26,27
 442 15 442 15 402 1.5 c 128,-1,28
 362 -12 362 -12 319 -12 c 0,29,0
 239 -12 239 -12 197 24 c 128,-1,1
427 446 m 128,-1,31
 463 495 463 495 463 540 c 0,32,33
 463 560 463 560 453 570.5 c 128,-1,34
 443 581 443 581 426 581 c 0,35,36
 387 581 387 581 371 506 c 2,37,-1
 341 365 l 1,38,30
 391 397 391 397 427 446 c 128,-1,31
EndSplineSet
EndChar
StartChar: trademark
Encoding: 8482 8482 294
Width: 632
GlyphClass: 1
Flags: W
LayerCount: 2
Fore
SplineSet
163 597 m 1,0,-1
 80 597 l 1,1,-1
 95 668 l 1,2,-1
 336 668 l 1,3,-1
 321 597 l 1,4,-1
 237 597 l 1,5,-1
 182 343 l 1,6,-1
 108 343 l 1,7,-1
 163 597 l 1,0,-1
364 668 m 1,8,-1
 479 668 l 1,9,-1
 489 449 l 1,10,-1
 493 449 l 1,11,-1
 597 668 l 1,12,-1
 715 668 l 1,13,-1
 645 343 l 1,14,-1
 573 343 l 1,15,-1
 624 581 l 1,16,-1
 620 581 l 1,17,-1
 503 343 l 1,18,-1
 437 343 l 1,19,-1
 421 581 l 1,20,-1
 417 581 l 1,21,-1
 366 343 l 1,22,-1
 294 343 l 1,23,-1
 364 668 l 1,8,-1
EndSplineSet
EndChar
StartChar: estimated
Encoding: 8494 8494 301
Width: 632
GlyphClass: 1
Flags: W
LayerCount: 2
Fore
SplineSet
193 22.5 m 128,-1,1
 133 57 133 57 97 117 c 128,-1,2
 61 177 61 177 61 251 c 0,3,4
 61 320 61 320 96 379 c 128,-1,5
 131 438 131 438 191 473.5 c 128,-1,6
 251 509 251 509 323 509 c 0,7,8
 393 509 393 509 452.5 474 c 128,-1,9
 512 439 512 439 547 379 c 128,-1,10
 582 319 582 319 582 249 c 1,11,-1
 193 249 l 1,12,-1
 193 99 l 1,13,14
 219 76 219 76 252.5 63.5 c 128,-1,15
 286 51 286 51 323 51 c 0,16,17
 367 51 367 51 406.5 70 c 128,-1,18
 446 89 446 89 474 122 c 1,19,-1
 535 100 l 1,20,21
 499 48 499 48 443.5 18 c 128,-1,22
 388 -12 388 -12 323 -12 c 0,23,0
 253 -12 253 -12 193 22.5 c 128,-1,1
451 308 m 1,24,-1
 451 397 l 1,25,26
 424 421 424 421 391.5 433.5 c 128,-1,27
 359 446 359 446 323 446 c 0,28,29
 286 446 286 446 252.5 433 c 128,-1,30
 219 420 219 420 193 397 c 1,31,-1
 193 308 l 1,32,-1
 451 308 l 1,24,-1
EndSplineSet
EndChar
StartChar: radical
Encoding: 8730 8730 330
Width: 632
GlyphClass: 1
Flags: W
LayerCount: 2
Fore
SplineSet
111 103 m 1,0,-1
 -9 103 l 1,1,-1
 17 225 l 1,2,-1
 216 225 l 1,3,-1
 258 8 l 1,4,-1
 569 668 l 1,5,-1
 707 668 l 1,6,-1
 315 -162 l 1,7,-1
 170 -162 l 1,8,-1
 111 103 l 1,0,-1
EndSplineSet
EndChar
StartChar: integral
Encoding: 8747 8747 327
Width: 632
GlyphClass: 1
Flags: W
LayerCount: 2
Fore
SplineSet
73.5 -154.5 m 128,-1,1
 43 -135 43 -135 43 -99 c 0,2,3
 43 -74 43 -74 60.5 -54.5 c 128,-1,4
 78 -35 78 -35 107 -35 c 0,5,6
 131 -35 131 -35 145 -48 c 128,-1,7
 159 -61 159 -61 159 -83 c 0,8,9
 159 -95 159 -95 154 -110 c 1,10,11
 167 -103 167 -103 176.5 -83.5 c 128,-1,12
 186 -64 186 -64 195 -24 c 2,13,-1
 302 451 l 2,14,15
 353 680 353 680 495 680 c 0,16,17
 534 680 534 680 564.5 660.5 c 128,-1,18
 595 641 595 641 595 606 c 0,19,20
 595 582 595 582 577 562 c 128,-1,21
 559 542 559 542 531 542 c 0,22,23
 507 542 507 542 493 555 c 128,-1,24
 479 568 479 568 479 590 c 0,25,26
 479 602 479 602 484 617 c 1,27,28
 471 610 471 610 461.5 590.5 c 128,-1,29
 452 571 452 571 443 531 c 2,30,-1
 336 56 l 2,31,32
 309 -67 309 -67 258.5 -120.5 c 128,-1,33
 208 -174 208 -174 143 -174 c 0,34,0
 104 -174 104 -174 73.5 -154.5 c 128,-1,1
EndSplineSet
EndChar
StartChar: approxequal
Encoding: 8776 8776 322
Width: 632
GlyphClass: 1
Flags: W
LayerCount: 2
Fore
SplineSet
113 199.5 m 128,-1,1
 150 237 150 237 208 237 c 0,2,3
 235 237 235 237 256 228.5 c 128,-1,4
 277 220 277 220 306 204 c 0,5,6
 329 190 329 190 345 183 c 128,-1,7
 361 176 361 176 381 176 c 0,8,9
 431 176 431 176 446 241 c 1,10,-1
 535 207 l 1,11,12
 514 136 514 136 477 98.5 c 128,-1,13
 440 61 440 61 382 61 c 0,14,15
 355 61 355 61 334 69.5 c 128,-1,16
 313 78 313 78 284 94 c 0,17,18
 261 108 261 108 245 115 c 128,-1,19
 229 122 229 122 209 122 c 0,20,21
 159 122 159 122 144 57 c 1,22,-1
 55 91 l 1,23,0
 76 162 76 162 113 199.5 c 128,-1,1
157 403.5 m 128,-1,25
 194 441 194 441 252 441 c 0,26,27
 279 441 279 441 300 432.5 c 128,-1,28
 321 424 321 424 350 408 c 0,29,30
 373 394 373 394 389 387 c 128,-1,31
 405 380 405 380 425 380 c 0,32,33
 475 380 475 380 490 445 c 1,34,-1
 579 411 l 1,35,36
 558 340 558 340 521 302.5 c 128,-1,37
 484 265 484 265 426 265 c 0,38,39
 399 265 399 265 378 273.5 c 128,-1,40
 357 282 357 282 328 298 c 0,41,42
 305 312 305 312 289 319 c 128,-1,43
 273 326 273 326 253 326 c 0,44,45
 203 326 203 326 188 261 c 1,46,-1
 99 295 l 1,47,24
 120 366 120 366 157 403.5 c 128,-1,25
EndSplineSet
EndChar
StartChar: notequal
Encoding: 8800 8800 316
Width: 632
GlyphClass: 1
Flags: W
LayerCount: 2
Fore
SplineSet
109 101 m 1,0,-1
 30 101 l 1,1,-1
 55 220 l 1,2,-1
 217 220 l 1,3,-1
 276 286 l 1,4,-1
 69 286 l 1,5,-1
 94 404 l 1,6,-1
 381 404 l 1,7,-1
 463 496 l 1,8,-1
 613 496 l 1,9,-1
 531 404 l 1,10,-1
 605 404 l 1,11,-1
 580 286 l 1,12,-1
 425 286 l 1,13,-1
 366 220 l 1,14,-1
 566 220 l 1,15,-1
 541 101 l 1,16,-1
 259 101 l 1,17,-1
 169 0 l 1,18,-1
 19 0 l 1,19,-1
 109 101 l 1,0,-1
EndSplineSet
EndChar
StartChar: lessequal
Encoding: 8804 8804 320
Width: 632
GlyphClass: 1
Flags: W
LayerCount: 2
Fore
SplineSet
66 261 m 1,0,-1
 91 378 l 1,1,-1
 621 505 l 1,2,-1
 595 381 l 1,3,-1
 241 315 l 1,4,-1
 567 248 l 1,5,-1
 543 134 l 1,6,-1
 66 261 l 1,0,-1
35 119 m 1,7,-1
 540 119 l 1,8,-1
 515 0 l 1,9,-1
 10 0 l 1,10,-1
 35 119 l 1,7,-1
EndSplineSet
EndChar
StartChar: gravecomb.case
Encoding: 65543 -1 341
Width: 0
GlyphClass: 4
Flags: W
AnchorPoint: "Anchor-5" 500 878 basemark 0
AnchorPoint: "Anchor-5" 455 668 mark 0
AnchorPoint: "Anchor-1" 455 668 mark 0
LayerCount: 2
Fore
SplineSet
332 816 m 0,1,2
 332 840 332 840 349 858 c 128,-1,3
 366 876 366 876 390 876 c 256,4,5
 414 876 414 876 438 841 c 2,6,-1
 515 731 l 1,7,-1
 411 731 l 1,8,-1
 360 772 l 2,9,0
 332 795 332 795 332 816 c 0,1,2
EndSplineSet
EndChar
StartChar: uni0307.case
Encoding: 65541 -1 338
Width: 0
GlyphClass: 4
Flags: W
AnchorPoint: "Anchor-5" 447 865 basemark 0
AnchorPoint: "Anchor-5" 405 668 mark 0
AnchorPoint: "Anchor-1" 405 668 mark 0
LayerCount: 2
Fore
SplineSet
381.5 742.5 m 128,-1,1
 360 764 360 764 360 793 c 256,2,3
 360 822 360 822 381.5 843.5 c 128,-1,4
 403 865 403 865 432 865 c 256,5,6
 461 865 461 865 482 843.5 c 128,-1,7
 503 822 503 822 503 793 c 256,8,9
 503 764 503 764 482 742.5 c 128,-1,10
 461 721 461 721 432 721 c 256,11,0
 403 721 403 721 381.5 742.5 c 128,-1,1
EndSplineSet
EndChar
StartChar: uni030C.alt
Encoding: 65546 -1 346
Width: 0
GlyphClass: 4
Flags: W
AnchorPoint: "Anchor-3" 290 496 mark 0
LayerCount: 2
Fore
SplineSet
432 718 m 0,1,2
 454 718 454 718 467 706 c 128,-1,3
 480 694 480 694 480 678 c 0,4,5
 480 665 480 665 473.5 651.5 c 128,-1,6
 467 638 467 638 451 613 c 2,7,-1
 396 527 l 1,8,-1
 312 527 l 1,9,-1
 365 665 l 2,10,0
 385 718 385 718 432 718 c 0,1,2
EndSplineSet
EndChar
StartChar: uni0328.alt
Encoding: 65553 -1 362
Width: 0
GlyphClass: 4
Flags: W
AnchorPoint: "Anchor-2" 371 10 mark 0
LayerCount: 2
Fore
SplineSet
185.5 -152.5 m 128,-1,1
 141 -132 141 -132 141 -88 c 0,2,3
 141 -50 141 -50 180 -13.5 c 128,-1,4
 219 23 219 23 264 39 c 1,5,-1
 362 38 l 1,6,7
 319 13 319 13 290 -13 c 128,-1,8
 261 -39 261 -39 261 -66 c 0,9,10
 261 -84 261 -84 274 -93 c 128,-1,11
 287 -102 287 -102 310 -102 c 0,12,13
 321 -102 321 -102 349 -98 c 1,14,-1
 333 -170 l 1,15,16
 312 -173 312 -173 298 -173 c 0,17,0
 230 -173 230 -173 185.5 -152.5 c 128,-1,1
EndSplineSet
EndChar
StartChar: uni0328.case
Encoding: 65554 -1 363
Width: 0
GlyphClass: 4
Flags: W
AnchorPoint: "Anchor-2" 373 10 mark 0
LayerCount: 2
Fore
SplineSet
186.5 -153.5 m 128,-1,1
 140 -133 140 -133 140 -93 c 0,2,3
 140 -58 140 -58 170.5 -33 c 128,-1,4
 201 -8 201 -8 244 8 c 1,5,-1
 370 0 l 1,6,7
 350 -2 350 -2 324.5 -12.5 c 128,-1,8
 299 -23 299 -23 280.5 -39 c 128,-1,9
 262 -55 262 -55 262 -72 c 0,10,11
 262 -88 262 -88 275 -95 c 128,-1,12
 288 -102 288 -102 308 -102 c 0,13,14
 322 -102 322 -102 350 -98 c 1,15,-1
 335 -170 l 1,16,17
 318 -174 318 -174 295 -174 c 0,18,0
 233 -174 233 -174 186.5 -153.5 c 128,-1,1
EndSplineSet
EndChar
StartChar: zero.zero
Encoding: 65539 -1 239
Width: 632
GlyphClass: 1
Flags: W
LayerCount: 2
Fore
SplineSet
108.5 58 m 128,-1,1
 45 128 45 128 45 249 c 0,2,3
 45 345 45 345 79.5 445 c 128,-1,4
 114 545 114 545 188 613 c 128,-1,5
 262 681 262 681 375 681 c 0,6,7
 498 681 498 681 561 611 c 128,-1,8
 624 541 624 541 624 421 c 0,9,10
 624 326 624 326 589.5 225.5 c 128,-1,11
 555 125 555 125 480.5 56.5 c 128,-1,12
 406 -12 406 -12 294 -12 c 0,13,0
 172 -12 172 -12 108.5 58 c 128,-1,1
403 148.5 m 128,-1,15
 445 205 445 205 465 282.5 c 128,-1,16
 485 360 485 360 485 423 c 0,17,18
 485 491 485 491 458 534 c 128,-1,19
 431 577 431 577 373 577 c 0,20,21
 311 577 311 577 268 520.5 c 128,-1,22
 225 464 225 464 204 385.5 c 128,-1,23
 183 307 183 307 183 243 c 0,24,25
 183 175 183 175 210 133.5 c 128,-1,26
 237 92 237 92 297 92 c 0,27,14
 361 92 361 92 403 148.5 c 128,-1,15
280 279 m 128,-1,29
 257 302 257 302 257 334 c 256,30,31
 257 366 257 366 280 389 c 128,-1,32
 303 412 303 412 335 412 c 256,33,34
 367 412 367 412 390 389 c 128,-1,35
 413 366 413 366 413 334 c 256,36,37
 413 302 413 302 390 279 c 128,-1,38
 367 256 367 256 335 256 c 256,39,28
 303 256 303 256 280 279 c 128,-1,29
EndSplineSet
EndChar
